<svg width="131" height="38" viewBox="0 0 131 38" fill="none" xmlns="http://www.w3.org/2000/svg">
<path d="M0.668457 0.324219H5.20947L10.1167 12.3115H10.312L15.2192 0.324219H19.7603V18H16.1958V6.42773H16.0493L11.4351 17.9268H8.99365L4.37939 6.37891H4.23291V18H0.668457V0.324219ZM22.7388 18V0.324219H34.604V3.35156H26.4009V7.64844H33.9937V10.6758H26.4009V14.9727H34.6284V18H22.7388ZM43.686 18H37.4604V0.324219H43.7593C49.0815 0.324219 52.3408 3.63232 52.3286 9.1377C52.3408 14.6675 49.0815 18 43.686 18ZM41.1226 14.8506H43.5396C46.9087 14.8506 48.6665 13.105 48.6665 9.1377C48.6665 5.20703 46.9087 3.47363 43.564 3.47363H41.1226V14.8506ZM58.6519 0.324219V18H54.9897V0.324219H58.6519ZM64.5845 18H60.6294L66.7573 0.324219H71.4692L77.5728 18H73.6421L72.3115 13.9229H65.915L64.5845 18ZM66.8428 11.0664H71.3838L69.1743 4.30371H69.0522L66.8428 11.0664ZM85.3364 18V0.324219H88.9985V14.9727H96.6157V18H85.3364ZM102.402 18H98.4468L104.575 0.324219H109.287L115.39 18H111.459L110.129 13.9229H103.732L102.402 18ZM104.66 11.0664H109.201L106.992 4.30371H106.87L104.66 11.0664ZM117.392 18V0.324219H124.423C128.317 0.324219 130.295 2.2041 130.283 4.86523C130.295 6.94043 128.928 8.24658 127.109 8.64941V8.82031C129.099 8.91797 130.979 10.5049 130.991 13.1172C130.979 15.9248 128.879 18 124.887 18H117.392ZM121.054 14.9727H124.155C126.279 14.9849 127.194 14.106 127.182 12.7754C127.194 11.2861 126.059 10.2363 124.252 10.2363H121.054V14.9727ZM121.054 7.72168H123.886C125.424 7.73389 126.584 6.86719 126.572 5.45117C126.584 4.16943 125.632 3.30273 123.959 3.30273H121.054V7.72168ZM23.4138 25.6533V37.1299H22.0681V31.2773H20.7731V36.5459H19.4782V25.8691H20.7731V30.1475H22.0681V25.6533H23.4138ZM13.8923 34.4512V27.0117H18.1833V28.1543H15.3142V33.2578C16.5583 33.2451 17.5866 33.1816 18.7546 32.9658L18.8562 34.1211C17.466 34.4004 16.2663 34.4385 14.6667 34.4512H13.8923ZM27.6479 26.4912C28.6826 26.4912 29.5395 27.0688 30.0537 28.0781H32.7387V25.6533H34.1352V37.1426H32.7387V32.8008H30.1552C29.6538 33.9434 28.7524 34.6035 27.6479 34.6035C25.9213 34.6035 24.6962 33.0356 24.7026 30.541C24.6962 28.0654 25.9213 26.4912 27.6479 26.4912ZM26.061 30.541C26.0546 32.3057 26.7021 33.3276 27.6479 33.334C28.6001 33.3276 29.2412 32.3057 29.2475 30.541C29.2412 28.7891 28.6001 27.7607 27.6479 27.7607C26.7021 27.7607 26.0546 28.7891 26.061 30.541ZM30.4536 29.2334C30.5361 29.6333 30.5805 30.0713 30.5805 30.541C30.5805 30.9346 30.5488 31.3091 30.4853 31.6582H32.7387V29.2334H30.4536ZM42.6543 28.4082C42.6416 30.5156 43.7524 32.623 45.6123 33.4229L44.7744 34.5527C43.4541 33.9434 42.4892 32.731 41.956 31.2329C41.4292 32.8452 40.4389 34.1655 39.0488 34.8193L38.1855 33.6387C40.0962 32.8135 41.2134 30.6235 41.2197 28.4082V26.5801H42.6543V28.4082ZM46.4375 37.1426V25.6533H47.8594V37.1426H46.4375ZM55.2165 27.2275C55.2165 28.9985 56.9495 30.7822 59.3552 31.2012L58.7204 32.3818C56.7971 31.9819 55.2229 30.814 54.4739 29.2715C53.7185 30.8013 52.1443 31.9756 50.2273 32.3818L49.6052 31.2012C51.9729 30.7695 53.7121 28.9922 53.7185 27.2275V26.377H55.2165V27.2275ZM49.2878 35.6699V34.502H59.7742V35.6699H49.2878ZM65.1128 26.3643V27.5068H62.104V28.5859H64.6812V29.6777H62.104V30.8584C63.4751 30.8457 64.4272 30.7886 65.5444 30.5918L65.6968 31.6963C64.3701 31.9375 63.2783 31.9883 61.5073 31.9883H60.7456V26.3643H65.1128ZM62.3325 36.9902V33.0039H70.0767V36.9902H62.3325ZM63.7417 35.8477H68.6802V34.1211H63.7417V35.8477ZM65.1763 29.6016V28.459H66.4712V25.8438H67.8169V32.4326H66.4712V29.6016H65.1763ZM68.731 32.5215V25.6533H70.0767V32.5215H68.731ZM80.4746 26.5039V27.1895C80.4619 27.9702 80.4619 29.1128 80.1953 30.5664L78.7988 30.4395C79.0274 29.2588 79.0718 28.3765 79.0845 27.6719H74.6221V26.5039H80.4746ZM73.9365 31.4805C74.6157 31.4741 75.3775 31.4678 76.1836 31.4551V29.1191H77.5801V31.4106C78.7671 31.3599 79.9859 31.271 81.0967 31.1123L81.1729 32.1279C78.7861 32.5596 76.0757 32.604 74.0635 32.6104L73.9365 31.4805ZM75.6504 36.9014V33.4863H77.0723V35.7588H83.585V36.9014H75.6504ZM81.7695 34.248V25.6533H83.2168V29.2334H84.7022V30.4141H83.2168V34.248H81.7695ZM94.5984 25.6533V37.1426H93.2019V25.6533H94.5984ZM85.6609 27.7988V26.6562H91.0691V30.96H87.1209V33.2705C88.93 33.2578 90.4851 33.1626 92.2752 32.8643L92.4021 34.0195C90.4534 34.356 88.7395 34.4321 86.6765 34.4258H85.6736V29.8428H89.6346V27.7988H85.6609ZM100.127 28.916C100.121 30.687 101.188 32.7056 102.997 33.5498L102.21 34.667C100.915 34.0576 99.9561 32.8262 99.4419 31.3916C98.9214 32.9658 97.9185 34.3115 96.5982 34.9463L95.773 33.8418C97.6011 32.9722 98.712 30.8267 98.7183 28.916V27.9512H96.2173V26.7832H102.527V27.9512H100.127V28.916ZM103.593 37.1299V25.6533H105.002V30.1221H106.767V31.3027H105.002V37.1299H103.593ZM117.45 31.1758V32.3057H106.99V31.1758H109.427V29.7222C108.557 29.354 108.069 28.7764 108.069 28.0273C108.069 26.6499 109.675 25.8438 112.207 25.8438C114.734 25.8438 116.34 26.6499 116.346 28.0273C116.34 28.7827 115.845 29.3604 114.975 29.7222V31.1758H117.45ZM108.208 35.0479C108.208 33.7275 109.7 32.9912 112.207 33.0039C114.677 32.9912 116.175 33.7275 116.181 35.0479C116.175 36.3809 114.677 37.1045 112.207 37.1045C109.7 37.1045 108.208 36.3809 108.208 35.0479ZM109.541 28.0273C109.529 28.7256 110.512 29.1001 112.207 29.0938C113.896 29.1001 114.886 28.7256 114.886 28.0273C114.886 27.3228 113.896 26.9292 112.207 26.9355C110.512 26.9292 109.529 27.3228 109.541 28.0273ZM109.643 35.0479C109.637 35.6953 110.538 36.0444 112.207 36.0381C113.851 36.0444 114.759 35.6953 114.772 35.0479C114.759 34.4067 113.851 34.0767 112.207 34.0703C110.538 34.0767 109.637 34.4067 109.643 35.0479ZM110.849 31.1758H113.566V30.084C113.153 30.1411 112.696 30.1729 112.207 30.1729C111.719 30.1729 111.262 30.1411 110.849 30.084V31.1758Z" fill="#0E2B5A"/>
</svg>
