<svg width="10" height="16" viewBox="0 0 10 16" fill="none" xmlns="http://www.w3.org/2000/svg">
<path d="M0.958343 15.5834C0.75001 15.375 0.645844 15.1284 0.645844 14.8434C0.645844 14.5589 0.75001 14.3125 0.958343 14.1042L7.06251 8.00004L0.93751 1.87504C0.743066 1.6806 0.645844 1.43754 0.645844 1.14587C0.645844 0.854207 0.75001 0.604207 0.958343 0.395874C1.16668 0.187541 1.41334 0.083374 1.69834 0.083374C1.98279 0.083374 2.22918 0.187541 2.43751 0.395874L9.43751 7.41671C9.52084 7.50004 9.58001 7.59032 9.61501 7.68754C9.64945 7.78476 9.66668 7.88893 9.66668 8.00004C9.66668 8.11115 9.64945 8.21532 9.61501 8.31254C9.58001 8.40976 9.52084 8.50004 9.43751 8.58337L2.41668 15.6042C2.22223 15.7987 1.98279 15.8959 1.69834 15.8959C1.41334 15.8959 1.16668 15.7917 0.958343 15.5834Z" fill="#0E2B5A"/>
</svg>
