<svg width="16" height="16" viewBox="0 0 16 16" fill="none" xmlns="http://www.w3.org/2000/svg">
<path d="M3.26665 0.212708H0.757207C0.6128 0.212771 0.474326 0.270165 0.372215 0.372276C0.270104 0.474387 0.21271 0.612861 0.212646 0.757268V3.26623C0.21271 3.41063 0.270104 3.54911 0.372215 3.65122C0.474326 3.75333 0.6128 3.81072 0.757207 3.81079H3.26641C3.41081 3.81072 3.54929 3.75333 3.6514 3.65122C3.75351 3.54911 3.8109 3.41063 3.81097 3.26623V0.757508C3.811 0.685995 3.79694 0.615176 3.76961 0.549095C3.74227 0.483014 3.70218 0.422965 3.65164 0.372375C3.60109 0.321786 3.54108 0.281647 3.47502 0.254251C3.40897 0.226856 3.33816 0.212739 3.26665 0.212708ZM9.25441 0.212708H6.74521C6.6008 0.212771 6.46233 0.270165 6.36021 0.372276C6.2581 0.474387 6.20071 0.612861 6.20065 0.757268V3.26623C6.20071 3.41063 6.2581 3.54911 6.36021 3.65122C6.46233 3.75333 6.6008 3.81072 6.74521 3.81079H9.25441C9.39881 3.81072 9.53729 3.75333 9.6394 3.65122C9.74151 3.54911 9.7989 3.41063 9.79897 3.26623V0.757508C9.799 0.685975 9.78494 0.615137 9.75758 0.54904C9.73023 0.482943 9.69012 0.422883 9.63955 0.37229C9.58898 0.321698 9.52894 0.281564 9.46286 0.254183C9.39677 0.226801 9.32594 0.212708 9.25441 0.212708ZM15.787 0.757268C15.7869 0.612861 15.7295 0.474387 15.6274 0.372276C15.5253 0.270165 15.3868 0.212771 15.2424 0.212708H12.733C12.5886 0.212771 12.4501 0.270165 12.348 0.372276C12.2459 0.474387 12.1885 0.612861 12.1884 0.757268V3.26647C12.1884 3.41092 12.2458 3.54945 12.3479 3.65161C12.45 3.75378 12.5885 3.8112 12.733 3.81127H15.2422C15.3866 3.8112 15.525 3.75381 15.6272 3.6517C15.7293 3.54959 15.7867 3.41111 15.7867 3.26671L15.787 0.757268ZM3.26665 6.20143H0.757207C0.6128 6.20149 0.474326 6.25889 0.372215 6.361C0.270104 6.46311 0.21271 6.60158 0.212646 6.74599V9.25519C0.21271 9.3996 0.270104 9.53807 0.372215 9.64018C0.474326 9.74229 0.6128 9.79969 0.757207 9.79975H3.26641C3.41081 9.79969 3.54929 9.74229 3.6514 9.64018C3.75351 9.53807 3.8109 9.3996 3.81097 9.25519V6.74623C3.811 6.67472 3.79694 6.6039 3.76961 6.53782C3.74227 6.47173 3.70218 6.41168 3.65164 6.36109C3.60109 6.31051 3.54108 6.27037 3.47502 6.24297C3.40897 6.21558 3.33816 6.20146 3.26665 6.20143ZM9.25441 6.20143H6.74521C6.6008 6.20149 6.46233 6.25889 6.36021 6.361C6.2581 6.46311 6.20071 6.60158 6.20065 6.74599V9.25519C6.20071 9.3996 6.2581 9.53807 6.36021 9.64018C6.46233 9.74229 6.6008 9.79969 6.74521 9.79975H9.25441C9.39881 9.79969 9.53729 9.74229 9.6394 9.64018C9.74151 9.53807 9.7989 9.3996 9.79897 9.25519V6.74623C9.799 6.6747 9.78494 6.60386 9.75758 6.53776C9.73023 6.47166 9.69012 6.4116 9.63955 6.36101C9.58898 6.31042 9.52894 6.27029 9.46286 6.2429C9.39677 6.21552 9.32594 6.20143 9.25441 6.20143ZM15.2424 6.20143H12.733C12.5886 6.20149 12.4501 6.25889 12.348 6.361C12.2459 6.46311 12.1885 6.60158 12.1884 6.74599V9.25519C12.1884 9.39964 12.2458 9.53817 12.3479 9.64034C12.45 9.7425 12.5885 9.79992 12.733 9.79999H15.2422C15.3866 9.79992 15.525 9.74253 15.6272 9.64042C15.7293 9.53831 15.7867 9.39983 15.7867 9.25543V6.74623C15.7868 6.67472 15.7727 6.6039 15.7454 6.53782C15.718 6.47173 15.6779 6.41168 15.6274 6.36109C15.5769 6.31051 15.5168 6.27037 15.4508 6.24297C15.3847 6.21558 15.3139 6.20146 15.2424 6.20143ZM3.26665 12.1889H0.757207C0.6128 12.189 0.474326 12.2464 0.372215 12.3485C0.270104 12.4506 0.21271 12.5891 0.212646 12.7335V15.2425C0.21271 15.3869 0.270104 15.5253 0.372215 15.6275C0.474326 15.7296 0.6128 15.787 0.757207 15.787H3.26641C3.41081 15.787 3.54929 15.7296 3.6514 15.6275C3.75351 15.5253 3.8109 15.3869 3.81097 15.2425V12.7335C3.811 12.662 3.79694 12.5912 3.7696 12.5251C3.74226 12.4591 3.70217 12.399 3.65162 12.3485C3.60108 12.2979 3.54106 12.2578 3.475 12.2304C3.40895 12.203 3.33815 12.1889 3.26665 12.1889ZM9.25441 12.1889H6.74521C6.6008 12.189 6.46233 12.2464 6.36021 12.3485C6.2581 12.4506 6.20071 12.5891 6.20065 12.7335V15.2425C6.20071 15.3869 6.2581 15.5253 6.36021 15.6275C6.46233 15.7296 6.6008 15.787 6.74521 15.787H9.25441C9.39881 15.787 9.53729 15.7296 9.6394 15.6275C9.74151 15.5253 9.7989 15.3869 9.79897 15.2425V12.7335C9.79897 12.5891 9.74159 12.4506 9.63947 12.3484C9.53734 12.2463 9.39883 12.1889 9.25441 12.1889ZM15.2424 12.1889H12.733C12.5886 12.189 12.4501 12.2464 12.348 12.3485C12.2459 12.4506 12.1885 12.5891 12.1884 12.7335V15.2425C12.1884 15.3869 12.2458 15.5255 12.3479 15.6276C12.45 15.7298 12.5885 15.7872 12.733 15.7873H15.2422C15.3866 15.7872 15.525 15.7298 15.6272 15.6277C15.7293 15.5256 15.7867 15.3871 15.7867 15.2427V12.7335C15.7868 12.662 15.7727 12.5912 15.7454 12.5251C15.718 12.4591 15.6779 12.399 15.6274 12.3485C15.5768 12.2979 15.5168 12.2578 15.4508 12.2304C15.3847 12.203 15.3139 12.1889 15.2424 12.1889Z" fill="#0E2B5A"/>
</svg>
