<svg width="92" height="22" viewBox="0 0 92 22" fill="none" xmlns="http://www.w3.org/2000/svg">
<path fill-rule="evenodd" clip-rule="evenodd" d="M91.4888 11.4918C91.4888 12.0993 90.9963 12.5918 90.3888 12.5918L78.6598 12.5918C78.0523 12.5918 77.5598 12.0993 77.5598 11.4918C77.5598 10.8843 78.0523 10.3918 78.6598 10.3918L90.3888 10.3918C90.9963 10.3918 91.4888 10.8843 91.4888 11.4918Z" fill="#0E2B5A"/>
<path fill-rule="evenodd" clip-rule="evenodd" d="M84.3778 17.5016C83.9483 17.072 83.9484 16.3755 84.3781 15.946L88.833 11.4928L84.378 7.03779C83.9484 6.60822 83.9484 5.91173 84.378 5.48216C84.8075 5.05258 85.504 5.05258 85.9336 5.48216L91.1666 10.7152C91.3729 10.9215 91.4888 11.2013 91.4888 11.4931C91.4887 11.7849 91.3728 12.0647 91.1664 12.2709L85.9334 17.5019C85.5038 17.9314 84.8073 17.9313 84.3778 17.5016Z" fill="#0E2B5A"/>
<path fill-rule="evenodd" clip-rule="evenodd" d="M78.3518 18.7839C78.6966 18.7839 79.0272 18.6469 79.271 18.4031C79.5148 18.1593 79.6518 17.8287 79.6518 17.4839L79.6518 15.7899C79.6518 15.1824 80.1443 14.6899 80.7518 14.6899C81.3593 14.6899 81.8518 15.1824 81.8518 15.7899L81.8518 17.4839C81.8518 18.4121 81.4831 19.3024 80.8267 19.9588C80.1703 20.6151 79.2801 20.9839 78.3518 20.9839L73.9038 20.9839C72.9756 20.9839 72.0853 20.6151 71.4289 19.9588C70.7726 19.3024 70.4038 18.4121 70.4038 17.4839L70.4038 5.49889C70.4042 4.57088 70.7731 3.68056 71.4294 3.0245C72.0858 2.36844 72.9758 1.99988 73.9038 1.99988L78.3518 1.99989C79.2801 1.99989 80.1703 2.36864 80.8267 3.02501C81.4831 3.68139 81.8518 4.57163 81.8518 5.49989L81.8518 7.18989C81.8518 7.7974 81.3593 8.28989 80.7518 8.28989C80.1443 8.28989 79.6518 7.7974 79.6518 7.18989L79.6518 5.49989C79.6518 5.15511 79.5148 4.82445 79.271 4.58065C79.0272 4.33685 78.6966 4.19989 78.3518 4.19989L73.9038 4.19989C73.5591 4.19989 73.2285 4.33678 72.9848 4.58046C72.741 4.82414 72.604 5.15466 72.6038 5.49934L72.6038 17.4839C72.6038 17.8287 72.7408 18.1593 72.9846 18.4031C73.2284 18.6469 73.559 18.7839 73.9038 18.7839L78.3518 18.7839Z" fill="#0E2B5A"/>
<path fill-rule="evenodd" clip-rule="evenodd" d="M61.0078 9.245C60.7208 10.494 59.8608 11.044 59.2318 11.447C58.5808 11.863 58.3558 12.037 58.3558 12.626C58.3558 12.8647 58.261 13.0936 58.0922 13.2624C57.9234 13.4312 57.6945 13.526 57.4558 13.526C57.2171 13.526 56.9882 13.4312 56.8194 13.2624C56.6506 13.0936 56.5558 12.8647 56.5558 12.626C56.5558 11.021 57.5418 10.391 58.2618 9.93C58.8338 9.565 59.1368 9.35 59.2538 8.842C59.3548 8.401 59.2748 8.011 59.0138 7.683C58.6718 7.254 58.0608 6.976 57.4558 6.976C56.4778 6.976 55.6818 7.773 55.6818 8.751C55.6818 8.9897 55.587 9.21861 55.4182 9.3874C55.2494 9.55618 55.0205 9.651 54.7818 9.651C54.5431 9.651 54.3142 9.55618 54.1454 9.3874C53.9766 9.21861 53.8818 8.9897 53.8818 8.751C53.8829 7.80344 54.2598 6.895 54.9298 6.22497C55.5998 5.55494 56.5082 5.17806 57.4558 5.177C58.6048 5.177 59.7408 5.707 60.4218 6.562C61.0238 7.318 61.2318 8.271 61.0078 9.245M57.4718 16.984C57.1535 16.984 56.8483 16.8576 56.6233 16.6325C56.3982 16.4075 56.2718 16.1023 56.2718 15.784C56.2718 15.4657 56.3982 15.1605 56.6233 14.9355C56.8483 14.7104 57.1535 14.584 57.4718 14.584C57.7901 14.584 58.0953 14.7104 58.3203 14.9355C58.5454 15.1605 58.6718 15.4657 58.6718 15.784C58.6718 16.1023 58.5454 16.4075 58.3203 16.6325C58.0953 16.8576 57.7901 16.984 57.4718 16.984ZM57.4038 0C51.3278 0 46.4038 4.925 46.4038 11C46.4038 17.076 51.3278 22 57.4038 22C63.4788 22 68.4038 17.076 68.4038 11C68.4038 4.925 63.4788 0 57.4038 0Z" fill="#0E2B5A"/>
<path d="M44.4039 10.1703C44.4039 8.87735 43.8883 7.63738 42.9705 6.72314C42.0526 5.8089 40.8078 5.29528 39.5098 5.29528H35.7452C35.6981 5.29528 30.9453 5.22028 26.4183 1.44216C26.144 1.21157 25.8093 1.06389 25.4535 1.01653C25.0978 0.969166 24.7359 1.0241 24.4104 1.17485C24.085 1.32561 23.8096 1.56589 23.6168 1.86739C23.4239 2.16889 23.3216 2.51903 23.3219 2.87653V17.464C23.3185 17.8208 23.4189 18.1709 23.6109 18.472C23.803 18.7732 24.0785 19.0124 24.4042 19.1609C24.654 19.2805 24.927 19.3445 25.2042 19.3484C25.65 19.3487 26.0811 19.1889 26.4183 18.8984C28.5621 17.1008 31.12 15.8607 33.8629 15.289V17.9609C33.8615 18.3088 33.9589 18.6501 34.1437 18.9453C34.3285 19.2405 34.5933 19.4778 34.9076 19.6297L36.6581 20.5109C36.9105 20.6354 37.1875 20.7026 37.4691 20.7074C37.7506 20.7123 38.0298 20.6548 38.2863 20.539C38.5446 20.4221 38.7729 20.2483 38.9538 20.0307C39.1348 19.813 39.2638 19.5573 39.331 19.2828L40.4134 14.9609C41.5341 14.7494 42.5457 14.1553 43.274 13.2809C44.0024 12.4065 44.4019 11.3065 44.4039 10.1703ZM25.5807 16.6859V3.65466C27.9995 5.53734 30.8421 6.8051 33.8629 7.34841V12.9922C30.8421 13.5355 27.9995 14.8032 25.5807 16.6859ZM37.2511 18.289L36.1217 17.7265V15.0453H38.0605L37.2511 18.289ZM39.5098 12.7953H36.1217V7.54528H39.5098C40.2088 7.54528 40.879 7.82185 41.3733 8.31413C41.8675 8.80641 42.1451 9.47409 42.1451 10.1703C42.1451 10.8665 41.8675 11.5342 41.3733 12.0264C40.879 12.5187 40.2088 12.7953 39.5098 12.7953Z" fill="#0E2B5A"/>
<path fill-rule="evenodd" clip-rule="evenodd" d="M11 14.667C10.5185 14.667 10.0417 14.5722 9.59688 14.3879C9.15204 14.2036 8.74785 13.9336 8.40738 13.5931C8.06692 13.2526 7.79685 12.8484 7.61259 12.4036C7.42833 11.9588 7.33349 11.482 7.33349 11.0005C7.33349 10.519 7.42833 10.0422 7.61259 9.59739C7.79685 9.15255 8.06692 8.74836 8.40738 8.40789C8.74785 8.06743 9.15204 7.79735 9.59688 7.6131C10.0417 7.42884 10.5185 7.334 11 7.334C11.9724 7.334 12.905 7.72029 13.5926 8.40789C14.2802 9.0955 14.6665 10.0281 14.6665 11.0005C14.6665 11.9729 14.2802 12.9055 13.5926 13.5931C12.905 14.2807 11.9724 14.667 11 14.667V14.667ZM20.033 12.952C19.53 12.4311 19.2492 11.7351 19.25 11.011V10.99C19.2492 10.2659 19.53 9.56988 20.033 9.049L20.972 8.079C21.358 7.679 21.432 7.071 21.155 6.59L19.897 4.412C19.762 4.17755 19.5542 3.9935 19.3052 3.88775C19.0562 3.78201 18.7794 3.76033 18.517 3.826L17.202 4.154C16.4958 4.3308 15.7485 4.2242 15.12 3.857L15.102 3.847C14.4829 3.48722 14.0274 2.90155 13.831 2.213L13.455 0.904C13.3809 0.643683 13.2239 0.414617 13.0079 0.251495C12.7919 0.0883743 12.5287 8.4899e-05 12.258 0H9.74199C9.18699 0 8.69699 0.369 8.54499 0.904L8.13999 2.313C7.96217 2.94272 7.54417 3.47743 6.97599 3.802C6.91731 3.83482 6.85929 3.86882 6.80199 3.904C6.2319 4.2435 5.55057 4.34345 4.90699 4.182L3.48199 3.826C3.21964 3.76041 2.94307 3.78202 2.69409 3.88756C2.44512 3.99311 2.23727 4.17685 2.10199 4.411L0.844993 6.59C0.709791 6.82444 0.654525 7.09649 0.687537 7.3651C0.720549 7.6337 0.840047 7.88428 1.02799 8.079L1.96699 9.049C2.46999 9.57 2.75099 10.266 2.75099 10.989V11.011C2.75099 11.735 2.46999 12.431 1.96699 12.952L1.46399 13.472C1.15032 13.7963 0.950792 14.214 0.895583 14.6618C0.840373 15.1096 0.932487 15.5632 1.15799 15.954L2.10299 17.589C2.38099 18.071 2.94299 18.31 3.48299 18.175L4.90799 17.819C5.55157 17.6576 6.2329 17.7575 6.80299 18.097C6.85999 18.132 6.91799 18.166 6.97699 18.199C7.54599 18.521 7.96099 19.058 8.14099 19.688L8.54499 21.097C8.69699 21.632 9.18699 22 9.74199 22H12.258C12.813 22 13.303 21.632 13.455 21.097L13.859 19.688C14.039 19.058 14.454 18.521 15.023 18.199C15.082 18.166 15.14 18.132 15.197 18.097C15.7671 17.7575 16.4484 17.6576 17.092 17.819L18.517 18.175C18.7793 18.2406 19.0559 18.219 19.3049 18.1134C19.5539 18.0079 19.7617 17.8242 19.897 17.59L21.155 15.411C21.2902 15.1766 21.3455 14.9045 21.3124 14.6359C21.2794 14.3673 21.1599 14.1167 20.972 13.922L20.032 12.952H20.033Z" fill="#0E2B5A"/>
</svg>
