<svg width="30" height="22" viewBox="0 0 30 22" fill="none" xmlns="http://www.w3.org/2000/svg">
<path d="M2.5 22C1.8125 22 1.22417 21.7554 0.735 21.2663C0.245 20.7763 0 20.1875 0 19.5H5C4.3125 19.5 3.72417 19.2554 3.235 18.7663C2.745 18.2763 2.5 17.6875 2.5 17V3.25C2.5 2.5625 2.745 1.97375 3.235 1.48375C3.72417 0.994583 4.3125 0.75 5 0.75H25C25.6875 0.75 26.2763 0.994583 26.7663 1.48375C27.2554 1.97375 27.5 2.5625 27.5 3.25V17C27.5 17.6875 27.2554 18.2763 26.7663 18.7663C26.2763 19.2554 25.6875 19.5 25 19.5H30C30 20.1875 29.7554 20.7763 29.2663 21.2663C28.7763 21.7554 28.1875 22 27.5 22H2.5ZM15 20.75C15.3542 20.75 15.6513 20.63 15.8913 20.39C16.1304 20.1508 16.25 19.8542 16.25 19.5C16.25 19.1458 16.1304 18.8492 15.8913 18.61C15.6513 18.37 15.3542 18.25 15 18.25C14.6458 18.25 14.3492 18.37 14.11 18.61C13.87 18.8492 13.75 19.1458 13.75 19.5C13.75 19.8542 13.87 20.1508 14.11 20.39C14.3492 20.63 14.6458 20.75 15 20.75ZM5 17H25V3.25H5V17Z" fill="white"/>
</svg>
