<svg width="18" height="18" viewBox="0 0 18 18" fill="none" xmlns="http://www.w3.org/2000/svg">
<path fill-rule="evenodd" clip-rule="evenodd" d="M9.25116 4.0907L2.45466 10.8872L1.52766 14.3447L0.917914 16.6224C0.900977 16.6861 0.901062 16.7531 0.918159 16.8166C0.935256 16.8802 0.968765 16.9382 1.01533 16.9848C1.06189 17.0313 1.11987 17.0649 1.18347 17.082C1.24706 17.0991 1.31403 17.0991 1.37766 17.0822L3.65391 16.4717L7.11216 15.5447H7.11291L13.9094 8.7482L9.25191 4.0907H9.25116ZM16.7197 4.8782L13.1227 1.28045C13.0531 1.21074 12.9704 1.15544 12.8794 1.1177C12.7884 1.07997 12.6909 1.06055 12.5924 1.06055C12.4939 1.06055 12.3964 1.07997 12.3054 1.1177C12.2144 1.15544 12.1318 1.21074 12.0622 1.28045L10.2059 3.13595L14.8642 7.7942L16.7197 5.93795C16.7894 5.86836 16.8447 5.7857 16.8824 5.69472C16.9201 5.60373 16.9396 5.5062 16.9396 5.4077C16.9396 5.3092 16.9201 5.21166 16.8824 5.12068C16.8447 5.02969 16.7894 4.94704 16.7197 4.87745" fill="#0E2B5A"/>
</svg>
