<svg width="14" height="14" viewBox="0 0 14 14" fill="none" xmlns="http://www.w3.org/2000/svg">
<path fill-rule="evenodd" clip-rule="evenodd" d="M8.51238 7.00006L13.2215 2.29089C13.3145 2.19804 13.3882 2.08779 13.4385 1.96645C13.4888 1.8451 13.5147 1.71504 13.5147 1.58369C13.5148 1.45233 13.4889 1.32225 13.4387 1.20088C13.3885 1.07951 13.3148 0.969218 13.222 0.876308C13.1291 0.783398 13.0189 0.709687 12.8975 0.659383C12.7762 0.609079 12.6461 0.583169 12.5148 0.58313C12.3834 0.583091 12.2533 0.608925 12.132 0.659157C12.0106 0.709389 11.9003 0.783036 11.8074 0.875891L7.09822 5.58589L2.38822 0.875891C2.19851 0.698705 1.94739 0.602154 1.68785 0.606618C1.42831 0.611082 1.18065 0.716211 0.997154 0.899816C0.813657 1.08342 0.708674 1.33114 0.704363 1.59068C0.700053 1.85023 0.796751 2.10129 0.974049 2.29089L5.68405 7.00006L0.974049 11.7092C0.834848 11.8494 0.740199 12.0276 0.702006 12.2214C0.663813 12.4152 0.68378 12.616 0.759398 12.7985C0.835015 12.981 0.962905 13.1371 1.12699 13.2471C1.29107 13.3571 1.48401 13.4161 1.68155 13.4167C1.93738 13.4167 2.19322 13.3192 2.38822 13.1242L7.09822 8.41422L11.8074 13.1242C11.9001 13.2173 12.0103 13.2911 12.1317 13.3415C12.253 13.3919 12.3831 13.4178 12.5145 13.4178C12.6458 13.4178 12.7759 13.3919 12.8973 13.3415C13.0186 13.2911 13.1288 13.2173 13.2215 13.1242C13.3145 13.0314 13.3883 12.9211 13.4386 12.7997C13.4889 12.6783 13.5148 12.5481 13.5148 12.4167C13.5148 12.2853 13.4889 12.1552 13.4386 12.0338C13.3883 11.9124 13.3145 11.8021 13.2215 11.7092L8.51238 7.00006Z" fill="#666666"/>
</svg>
