<svg width="15" height="16" viewBox="0 0 15 16" fill="none" xmlns="http://www.w3.org/2000/svg">
<path fill-rule="evenodd" clip-rule="evenodd" d="M13.6701 7.09995H8.42009V1.84995C8.42009 1.61126 8.32527 1.38234 8.15649 1.21356C7.98771 1.04477 7.75879 0.949951 7.52009 0.949951C7.2814 0.949951 7.05248 1.04477 6.8837 1.21356C6.71491 1.38234 6.62009 1.61126 6.62009 1.84995V7.09995H1.37009C1.1314 7.09995 0.902479 7.19477 0.733697 7.36355C0.564914 7.53234 0.470093 7.76126 0.470093 7.99995C0.470093 8.23865 0.564914 8.46756 0.733697 8.63635C0.902479 8.80513 1.1314 8.89995 1.37009 8.89995H6.62009V14.15C6.62009 14.3886 6.71491 14.6176 6.8837 14.7863C7.05248 14.9551 7.2814 15.05 7.52009 15.05C7.75879 15.05 7.98771 14.9551 8.15649 14.7863C8.32527 14.6176 8.42009 14.3886 8.42009 14.15V8.89995H13.6701C13.9088 8.89995 14.1377 8.80513 14.3065 8.63635C14.4753 8.46756 14.5701 8.23865 14.5701 7.99995C14.5701 7.76126 14.4753 7.53234 14.3065 7.36355C14.1377 7.19477 13.9088 7.09995 13.6701 7.09995" fill="white"/>
</svg>
