<svg width="18" height="18" viewBox="0 0 18 18" fill="none" xmlns="http://www.w3.org/2000/svg">
<path d="M9.00008 10.6667C9.1649 10.6667 9.32602 10.6178 9.46306 10.5262C9.6001 10.4346 9.70691 10.3045 9.76998 10.1522C9.83305 9.99995 9.84956 9.8324 9.8174 9.67075C9.78525 9.5091 9.70588 9.36061 9.58934 9.24407C9.47279 9.12752 9.32431 9.04816 9.16266 9.016C9.00101 8.98385 8.83345 9.00035 8.68118 9.06342C8.52891 9.1265 8.39876 9.23331 8.30719 9.37035C8.21562 9.50739 8.16675 9.6685 8.16675 9.83332C8.16675 10.0543 8.25455 10.2663 8.41083 10.4226C8.56711 10.5789 8.77907 10.6667 9.00008 10.6667ZM13.1667 10.6667C13.3316 10.6667 13.4927 10.6178 13.6297 10.5262C13.7668 10.4346 13.8736 10.3045 13.9366 10.1522C13.9997 9.99995 14.0162 9.8324 13.9841 9.67075C13.9519 9.5091 13.8725 9.36061 13.756 9.24407C13.6395 9.12752 13.491 9.04816 13.3293 9.016C13.1677 8.98385 13.0001 9.00035 12.8478 9.06342C12.6956 9.1265 12.5654 9.23331 12.4739 9.37035C12.3823 9.50739 12.3334 9.6685 12.3334 9.83332C12.3334 10.0543 12.4212 10.2663 12.5775 10.4226C12.7338 10.5789 12.9457 10.6667 13.1667 10.6667ZM9.00008 14C9.1649 14 9.32602 13.9511 9.46306 13.8595C9.6001 13.768 9.70691 13.6378 9.76998 13.4856C9.83305 13.3333 9.84956 13.1657 9.8174 13.0041C9.78525 12.8424 9.70588 12.6939 9.58934 12.5774C9.47279 12.4609 9.32431 12.3815 9.16266 12.3493C9.00101 12.3172 8.83345 12.3337 8.68118 12.3968C8.52891 12.4598 8.39876 12.5666 8.30719 12.7037C8.21562 12.8407 8.16675 13.0018 8.16675 13.1667C8.16675 13.3877 8.25455 13.5996 8.41083 13.7559C8.56711 13.9122 8.77907 14 9.00008 14ZM13.1667 14C13.3316 14 13.4927 13.9511 13.6297 13.8595C13.7668 13.768 13.8736 13.6378 13.9366 13.4856C13.9997 13.3333 14.0162 13.1657 13.9841 13.0041C13.9519 12.8424 13.8725 12.6939 13.756 12.5774C13.6395 12.4609 13.491 12.3815 13.3293 12.3493C13.1677 12.3172 13.0001 12.3337 12.8478 12.3968C12.6956 12.4598 12.5654 12.5666 12.4739 12.7037C12.3823 12.8407 12.3334 13.0018 12.3334 13.1667C12.3334 13.3877 12.4212 13.5996 12.5775 13.7559C12.7338 13.9122 12.9457 14 13.1667 14ZM4.83341 10.6667C4.99823 10.6667 5.15935 10.6178 5.29639 10.5262C5.43343 10.4346 5.54024 10.3045 5.60331 10.1522C5.66639 9.99995 5.68289 9.8324 5.65074 9.67075C5.61858 9.5091 5.53921 9.36061 5.42267 9.24407C5.30613 9.12752 5.15764 9.04816 4.99599 9.016C4.83434 8.98385 4.66678 9.00035 4.51451 9.06342C4.36224 9.1265 4.23209 9.23331 4.14052 9.37035C4.04896 9.50739 4.00008 9.6685 4.00008 9.83332C4.00008 10.0543 4.08788 10.2663 4.24416 10.4226C4.40044 10.5789 4.6124 10.6667 4.83341 10.6667ZM14.8334 2.33332H14.0001V1.49999C14.0001 1.27898 13.9123 1.06701 13.756 0.910734C13.5997 0.754454 13.3878 0.666656 13.1667 0.666656C12.9457 0.666656 12.7338 0.754454 12.5775 0.910734C12.4212 1.06701 12.3334 1.27898 12.3334 1.49999V2.33332H5.66675V1.49999C5.66675 1.27898 5.57895 1.06701 5.42267 0.910734C5.26639 0.754454 5.05443 0.666656 4.83341 0.666656C4.6124 0.666656 4.40044 0.754454 4.24416 0.910734C4.08788 1.06701 4.00008 1.27898 4.00008 1.49999V2.33332H3.16675C2.50371 2.33332 1.86782 2.59672 1.39898 3.06556C0.93014 3.5344 0.666748 4.17028 0.666748 4.83332V14.8333C0.666748 15.4964 0.93014 16.1322 1.39898 16.6011C1.86782 17.0699 2.50371 17.3333 3.16675 17.3333H14.8334C15.4965 17.3333 16.1323 17.0699 16.6012 16.6011C17.07 16.1322 17.3334 15.4964 17.3334 14.8333V4.83332C17.3334 4.17028 17.07 3.5344 16.6012 3.06556C16.1323 2.59672 15.4965 2.33332 14.8334 2.33332ZM15.6667 14.8333C15.6667 15.0543 15.579 15.2663 15.4227 15.4226C15.2664 15.5789 15.0544 15.6667 14.8334 15.6667H3.16675C2.94573 15.6667 2.73377 15.5789 2.57749 15.4226C2.42121 15.2663 2.33341 15.0543 2.33341 14.8333V7.33332H15.6667V14.8333ZM15.6667 5.66666H2.33341V4.83332C2.33341 4.61231 2.42121 4.40035 2.57749 4.24407C2.73377 4.08779 2.94573 3.99999 3.16675 3.99999H14.8334C15.0544 3.99999 15.2664 4.08779 15.4227 4.24407C15.579 4.40035 15.6667 4.61231 15.6667 4.83332V5.66666ZM4.83341 14C4.99823 14 5.15935 13.9511 5.29639 13.8595C5.43343 13.768 5.54024 13.6378 5.60331 13.4856C5.66639 13.3333 5.68289 13.1657 5.65074 13.0041C5.61858 12.8424 5.53921 12.6939 5.42267 12.5774C5.30613 12.4609 5.15764 12.3815 4.99599 12.3493C4.83434 12.3172 4.66678 12.3337 4.51451 12.3968C4.36224 12.4598 4.23209 12.5666 4.14052 12.7037C4.04896 12.8407 4.00008 13.0018 4.00008 13.1667C4.00008 13.3877 4.08788 13.5996 4.24416 13.7559C4.40044 13.9122 4.6124 14 4.83341 14Z" fill="#0E2B5A"/>
</svg>
