<svg width="24" height="27" viewBox="0 0 24 27" fill="none" xmlns="http://www.w3.org/2000/svg">
<path d="M23.2854 18.3789C22.6174 17.2305 21.8205 15.0391 21.8205 11.125V10.293C21.8205 4.84375 17.4494 0.378906 12.0705 0.34375H12.0002C10.7086 0.343746 9.42971 0.598531 8.23673 1.09351C7.04374 1.58849 5.96012 2.31395 5.04791 3.22833C4.1357 4.14272 3.41283 5.22807 2.9207 6.42223C2.42856 7.61639 2.17683 8.89591 2.17991 10.1875V11.125C2.17991 15.0391 1.38303 17.2305 0.715064 18.3789C0.510301 18.7359 0.402649 19.1403 0.402832 19.5519C0.403016 19.9634 0.511028 20.3678 0.71611 20.7246C0.921192 21.0814 1.21619 21.3783 1.5717 21.5856C1.92722 21.7929 2.33086 21.9035 2.74241 21.9062H6.86741C6.98955 23.1829 7.58309 24.3683 8.53216 25.2309C9.48123 26.0935 10.7177 26.5714 12.0002 26.5714C13.2827 26.5714 14.5192 26.0935 15.4683 25.2309C16.4173 24.3683 17.0109 23.1829 17.133 21.9062H21.258C21.6696 21.9035 22.0732 21.7929 22.4287 21.5856C22.7843 21.3783 23.0792 21.0814 23.2843 20.7246C23.4894 20.3678 23.5974 19.9634 23.5976 19.5519C23.5978 19.1403 23.4901 18.7359 23.2854 18.3789ZM12.0002 23.7812C11.4605 23.7792 10.9379 23.5918 10.5197 23.2505C10.1016 22.9092 9.81343 22.4346 9.70334 21.9062H14.2971C14.187 22.4346 13.8988 22.9092 13.4807 23.2505C13.0626 23.5918 12.5399 23.7792 12.0002 23.7812ZM3.51585 19.0938C4.72288 16.5625 4.99241 13.4102 4.99241 11.125V10.1875C4.98777 9.26482 5.16569 8.35033 5.51594 7.4967C5.86618 6.64307 6.38182 5.86715 7.03318 5.21361C7.68453 4.56008 8.45872 4.04185 9.31118 3.68876C10.1636 3.33567 11.0775 3.15469 12.0002 3.15625H12.0588C15.8908 3.17969 19.008 6.37891 19.008 10.293V11.125C19.008 13.4102 19.2776 16.5625 20.4846 19.0938H3.51585Z" fill="#666666"/>
</svg>
