<svg width="15" height="13" viewBox="0 0 15 13" fill="none" xmlns="http://www.w3.org/2000/svg">
<path d="M9.23687 1.91989C8.66937 1.78364 8.08937 1.70239 7.5 1.70239C4.8675 1.70239 2.37812 3.11552 0.738746 5.46989C0.311246 6.08364 0.311246 6.91677 0.738746 7.53052C1.13875 8.10489 1.59062 8.62052 2.08125 9.07614L9.23687 1.91989Z" fill="#8B95A1"/>
<path d="M14.2619 5.46996C13.6056 4.52746 12.8087 3.74434 11.9244 3.13684L13.53 1.53121C13.8231 1.23809 13.8231 0.763086 13.53 0.470586C13.2369 0.178086 12.7619 0.177461 12.4694 0.470586L1.47 11.4687C1.17687 11.7618 1.17687 12.2368 1.47 12.5293C1.61625 12.6756 1.80875 12.7493 2.00062 12.7493C2.1925 12.7493 2.38437 12.6762 2.53125 12.5293L4.43375 10.6268C5.40187 11.0587 6.4375 11.2975 7.5 11.2975C10.1331 11.2975 12.6225 9.88434 14.2619 7.52996C14.6887 6.91684 14.6887 6.08371 14.2619 5.46996V5.46996ZM7.49937 8.98371C7.0875 8.98371 6.70312 8.87684 6.3625 8.69746L9.69687 5.36309C9.87625 5.70371 9.98312 6.08746 9.98312 6.49934C9.98312 7.86996 8.86875 8.98371 7.49937 8.98371V8.98371Z" fill="#8B95A1"/>
</svg>
