<svg width="2" height="9" viewBox="0 0 2 9" fill="none" xmlns="http://www.w3.org/2000/svg">
<path d="M0.9 5.76C1.09096 5.76 1.27409 5.68414 1.40912 5.54912C1.54414 5.41409 1.62 5.23095 1.62 5.04V0.72C1.62 0.529044 1.54414 0.345909 1.40912 0.210883C1.27409 0.075857 1.09096 0 0.9 0C0.709044 0 0.525909 0.075857 0.390883 0.210883C0.255857 0.345909 0.18 0.529044 0.18 0.72V5.04C0.18 5.23095 0.255857 5.41409 0.390883 5.54912C0.525909 5.68414 0.709044 5.76 0.9 5.76ZM0.9 8.64C1.078 8.64 1.25201 8.58721 1.40001 8.48832C1.54802 8.38943 1.66337 8.24887 1.73149 8.08441C1.79961 7.91996 1.81743 7.739 1.78271 7.56442C1.74798 7.38983 1.66226 7.22947 1.5364 7.1036C1.41053 6.97774 1.25016 6.89202 1.07558 6.85729C0.900998 6.82257 0.720038 6.84039 0.555585 6.90851C0.391131 6.97663 0.25057 7.09198 0.151677 7.23998C0.052784 7.38799 0 7.562 0 7.74C0 7.97869 0.0948211 8.20761 0.263604 8.3764C0.432387 8.54518 0.661305 8.64 0.9 8.64Z" fill="white"/>
</svg>
