<svg width="18" height="18" viewBox="0 0 18 18" fill="none" xmlns="http://www.w3.org/2000/svg">
<g clip-path="url(#clip0_722_3120)">
<path fill-rule="evenodd" clip-rule="evenodd" d="M12.369 9.79575H5.619C5.5125 9.79902 5.40642 9.78087 5.30706 9.74237C5.2077 9.70387 5.11709 9.64581 5.0406 9.57163C4.9641 9.49745 4.90329 9.40866 4.86175 9.31053C4.82022 9.2124 4.79882 9.10693 4.79882 9.00037C4.79882 8.89382 4.82022 8.78835 4.86175 8.69022C4.90329 8.59209 4.9641 8.5033 5.0406 8.42912C5.11709 8.35494 5.2077 8.29688 5.30706 8.25838C5.40642 8.21988 5.5125 8.20173 5.619 8.205H12.369C12.5757 8.21135 12.7718 8.29793 12.9158 8.4464C13.0598 8.59487 13.1403 8.79356 13.1403 9.00037C13.1403 9.20719 13.0598 9.40588 12.9158 9.55435C12.7718 9.70282 12.5757 9.7894 12.369 9.79575ZM9 0.75C4.44375 0.75 0.75 4.44375 0.75 9C0.75 13.557 4.44375 17.25 9 17.25C13.5562 17.25 17.25 13.557 17.25 9C17.25 4.44375 13.5562 0.75 9 0.75Z" fill="#8B95A1"/>
</g>
<defs>
<clipPath id="clip0_722_3120">
<rect width="18" height="18" fill="white"/>
</clipPath>
</defs>
</svg>
