<svg width="18" height="28" viewBox="0 0 18 28" fill="none" xmlns="http://www.w3.org/2000/svg">
<path d="M5.42646 16.8594C5.58483 16.7844 5.75645 16.7416 5.93144 16.7332C6.10644 16.7248 6.28137 16.7511 6.44616 16.8106C6.61096 16.8701 6.76237 16.9616 6.89169 17.0798C7.02102 17.198 7.1257 17.3405 7.19972 17.4993L10.2663 24.1524L12.6662 23.0191L9.58629 16.3794C9.26631 15.7127 9.55963 14.9128 10.2263 14.6061L10.5996 14.4995L13.6661 13.8995L2.66656 4.65984V19.0326L5.09313 17.0727L5.42646 16.8594ZM10.1863 27.1256C10.0289 27.2023 9.85791 27.2469 9.68318 27.2568C9.50845 27.2667 9.33348 27.2418 9.16847 27.1835C9.00345 27.1252 8.85168 27.0346 8.72199 26.9171C8.59229 26.7996 8.48726 26.6575 8.41301 26.499L5.50645 20.1792L2.15992 22.8725C1.93326 23.0591 1.65327 23.1658 1.33328 23.1658C0.979673 23.1658 0.640548 23.0253 0.390509 22.7753C0.140471 22.5252 0 22.1861 0 21.8325V1.83328C0 1.47967 0.140471 1.14055 0.390509 0.890509C0.640548 0.64047 0.979673 0.5 1.33328 0.5C1.65327 0.5 1.95992 0.619995 2.18658 0.806655L2.19991 0.793322L17.5193 13.6462C17.7125 13.807 17.8564 14.0192 17.9343 14.2582C18.0122 14.4973 18.021 14.7534 17.9597 14.9973C17.8984 15.2411 17.7695 15.4626 17.5878 15.6364C17.4061 15.8101 17.179 15.929 16.9327 15.9794L12.7195 16.806L15.6527 23.1125C15.9994 23.7791 15.6794 24.5657 15.0128 24.8724L10.1863 27.1256Z" fill="white"/>
</svg>
