<svg width="19" height="18" viewBox="0 0 19 18" fill="none" xmlns="http://www.w3.org/2000/svg">
<path fill-rule="evenodd" clip-rule="evenodd" d="M15.505 8.1002H10.2116V2.8502C10.2116 2.6115 10.116 2.38258 9.94578 2.2138C9.7756 2.04502 9.54479 1.9502 9.30413 1.9502C9.06346 1.9502 8.83265 2.04502 8.66247 2.2138C8.49229 2.38258 8.39669 2.6115 8.39669 2.8502V8.1002H3.1033C2.86263 8.1002 2.63182 8.19502 2.46164 8.3638C2.29147 8.53258 2.19586 8.7615 2.19586 9.0002C2.19586 9.23889 2.29147 9.46781 2.46164 9.63659C2.63182 9.80537 2.86263 9.9002 3.1033 9.9002H8.39669V15.1502C8.39669 15.3889 8.49229 15.6178 8.66247 15.7866C8.83265 15.9554 9.06346 16.0502 9.30413 16.0502C9.54479 16.0502 9.7756 15.9554 9.94578 15.7866C10.116 15.6178 10.2116 15.3889 10.2116 15.1502V9.9002H15.505C15.7456 9.9002 15.9764 9.80537 16.1466 9.63659C16.3168 9.46781 16.4124 9.23889 16.4124 9.0002C16.4124 8.7615 16.3168 8.53258 16.1466 8.3638C15.9764 8.19502 15.7456 8.1002 15.505 8.1002Z" fill="#8B95A1"/>
</svg>
