<svg width="50" height="50" viewBox="0 0 50 50" fill="none" xmlns="http://www.w3.org/2000/svg">
<path fill-rule="evenodd" clip-rule="evenodd" d="M35.0075 21.67C34.4118 21.6839 33.8192 21.5786 33.2648 21.3602C32.7104 21.1418 32.2052 20.8147 31.779 20.3983C31.3528 19.9818 31.0142 19.4843 30.783 18.935C30.5519 18.3858 30.4329 17.7959 30.4331 17.2C30.4332 16.6041 30.5525 16.0142 30.784 15.4651C31.0154 14.916 31.3543 14.4187 31.7808 14.0024C32.2072 13.5862 32.7126 13.2594 33.2671 13.0413C33.8217 12.8232 34.4143 12.7182 35.01 12.7325C36.1769 12.7604 37.2866 13.2437 38.1018 14.0789C38.9171 14.9142 39.3734 16.0353 39.3731 17.2025C39.3727 18.3697 38.9159 19.4905 38.1001 20.3253C37.2843 21.1601 36.1744 21.6427 35.0075 21.67M30.6975 36.95H15.6375C15.1065 36.9507 14.5852 36.8084 14.1282 36.5379C13.6713 36.2674 13.2957 35.8788 13.0409 35.413C12.7861 34.9472 12.6616 34.4213 12.6803 33.8906C12.6991 33.36 12.8604 32.8442 13.1475 32.3975L20.68 20.66C20.9473 20.2425 21.3153 19.8989 21.7503 19.6609C22.1852 19.4229 22.673 19.2982 23.1687 19.2982C23.6645 19.2982 24.1523 19.4229 24.5872 19.6609C25.0222 19.8989 25.3902 20.2425 25.6575 20.66L33.185 32.3975C33.4719 32.844 33.6333 33.3596 33.6522 33.89C33.671 34.4204 33.5467 34.9461 33.2922 35.4119C33.0377 35.8777 32.6624 36.2663 32.2059 36.5369C31.7493 36.8076 31.2283 36.9503 30.6975 36.95M43.2175 0.625H6.7825C5.14943 0.625 3.58325 1.27373 2.42849 2.42849C1.27373 3.58325 0.625 5.14943 0.625 6.7825V43.2175C0.625 44.8506 1.27373 46.4168 2.42849 47.5715C3.58325 48.7263 5.14943 49.375 6.7825 49.375H43.2175C44.8506 49.375 46.4168 48.7263 47.5715 47.5715C48.7263 46.4168 49.375 44.8506 49.375 43.2175V6.7825C49.375 5.14943 48.7263 3.58325 47.5715 2.42849C46.4168 1.27373 44.8506 0.625 43.2175 0.625" fill="#666666"/>
</svg>
