<svg width="18" height="12" viewBox="0 0 18 12" fill="none" xmlns="http://www.w3.org/2000/svg">
<path fill-rule="evenodd" clip-rule="evenodd" d="M9.09375 3.91895C7.89375 3.91895 6.91875 4.89394 6.91875 6.09394C6.91875 7.29394 7.89375 8.26894 9.09375 8.26894C10.2937 8.26894 11.2687 7.29394 11.2687 6.09394C11.2687 4.89394 10.2937 3.91895 9.09375 3.91895Z" fill="#0E2B5A"/>
<path fill-rule="evenodd" clip-rule="evenodd" d="M9.09375 9.84385C6.99375 9.84385 5.34375 8.11885 5.34375 6.09385C5.34375 4.06885 7.06875 2.34385 9.09375 2.34385C11.1188 2.34385 12.8438 4.06885 12.8438 6.09385C12.8438 8.11885 11.1938 9.84385 9.09375 9.84385ZM17.3438 5.11885C15.3938 2.11885 12.3188 0.318848 9.09375 0.318848C5.86875 0.318848 2.79375 2.11885 0.84375 5.11885C0.46875 5.71885 0.46875 6.46885 0.84375 7.06885C2.79375 10.0688 5.86875 11.8688 9.09375 11.8688C12.3188 11.8688 15.3938 10.0688 17.3438 7.06885C17.7938 6.46885 17.7938 5.71885 17.3438 5.11885Z" fill="#0E2B5A"/>
</svg>
