<svg width="46" height="46" viewBox="0 0 46 46" fill="none" xmlns="http://www.w3.org/2000/svg">
<path fill-rule="evenodd" clip-rule="evenodd" d="M23 33.6625C22.3369 33.6625 21.7011 33.3991 21.2322 32.9303C20.7634 32.4614 20.5 31.8256 20.5 31.1625C20.5 30.4995 20.7634 29.8636 21.2322 29.3947C21.7011 28.9259 22.3369 28.6625 23 28.6625C23.663 28.6625 24.2989 28.9259 24.7677 29.3947C25.2366 29.8636 25.5 30.4995 25.5 31.1625C25.5 31.8256 25.2366 32.4614 24.7677 32.9303C24.2989 33.3991 23.663 33.6625 23 33.6625V33.6625ZM20.9166 13.1729C20.9166 12.6204 21.1361 12.0905 21.5268 11.6998C21.9175 11.3091 22.4474 11.0896 23 11.0896C23.5525 11.0896 24.0824 11.3091 24.4731 11.6998C24.8638 12.0905 25.0833 12.6204 25.0833 13.1729V23.5896C25.0833 24.1421 24.8638 24.672 24.4731 25.0627C24.0824 25.4534 23.5525 25.6729 23 25.6729C22.4474 25.6729 21.9175 25.4534 21.5268 25.0627C21.1361 24.672 20.9166 24.1421 20.9166 23.5896V13.1729ZM23 0.0833435C10.3437 0.0833435 0.083313 10.3438 0.083313 23C0.083313 35.6583 10.3437 45.9167 23 45.9167C35.6562 45.9167 45.9166 35.6583 45.9166 23C45.9166 10.3438 35.6562 0.0833435 23 0.0833435Z" fill="#E0E4E9"/>
</svg>
