<svg width="23" height="24" viewBox="0 0 23 24" fill="none" xmlns="http://www.w3.org/2000/svg">
<path d="M1.25 23.25C0.895833 23.25 0.599167 23.13 0.36 22.89C0.12 22.6508 0 22.3542 0 22C0 21.6458 0.12 21.3492 0.36 21.11C0.599167 20.87 0.895833 20.75 1.25 20.75H2.5V2C2.5 1.64583 2.61958 1.34875 2.85875 1.10875C3.09875 0.869583 3.39583 0.75 3.75 0.75H13.75C14.1042 0.75 14.4013 0.869583 14.6413 1.10875C14.8804 1.34875 15 1.64583 15 2H18.75C19.1042 2 19.4008 2.11958 19.64 2.35875C19.88 2.59875 20 2.89583 20 3.25V20.75H21.25C21.6042 20.75 21.9008 20.87 22.14 21.11C22.38 21.3492 22.5 21.6458 22.5 22C22.5 22.3542 22.38 22.6508 22.14 22.89C21.9008 23.13 21.6042 23.25 21.25 23.25H18.75C18.3958 23.25 18.0992 23.13 17.86 22.89C17.62 22.6508 17.5 22.3542 17.5 22V4.5H15V22C15 22.3542 14.8804 22.6508 14.6413 22.89C14.4013 23.13 14.1042 23.25 13.75 23.25H1.25ZM11.25 12C11.25 11.6458 11.1304 11.3487 10.8913 11.1087C10.6513 10.8696 10.3542 10.75 10 10.75C9.64583 10.75 9.34917 10.8696 9.11 11.1087C8.87 11.3487 8.75 11.6458 8.75 12C8.75 12.3542 8.87 12.6508 9.11 12.89C9.34917 13.13 9.64583 13.25 10 13.25C10.3542 13.25 10.6513 13.13 10.8913 12.89C11.1304 12.6508 11.25 12.3542 11.25 12ZM5 20.75H12.5V3.25H5V20.75Z" fill="white"/>
</svg>
