<svg xmlns="http://www.w3.org/2000/svg"><symbol id="icon-gal-on" viewBox="0 0 16 16"><path fill="#0E2B5A" d="M3.267.213H.757a.545.545 0 0 0-.544.544v2.51a.545.545 0 0 0 .544.544h2.51a.545.545 0 0 0 .544-.545V.758a.545.545 0 0 0-.544-.545zm5.987 0H6.745a.545.545 0 0 0-.544.544v2.51a.545.545 0 0 0 .544.544h2.51a.545.545 0 0 0 .544-.545V.758a.544.544 0 0 0-.545-.545zm6.533.544a.545.545 0 0 0-.545-.544h-2.509a.545.545 0 0 0-.545.544v2.51a.545.545 0 0 0 .545.544h2.51a.545.545 0 0 0 .544-.544V.757zM3.267 6.201H.757a.545.545 0 0 0-.544.545v2.51a.545.545 0 0 0 .544.544h2.51a.545.545 0 0 0 .544-.545V6.746a.545.545 0 0 0-.544-.545zm5.987 0H6.745a.545.545 0 0 0-.544.545v2.51a.545.545 0 0 0 .544.544h2.51a.545.545 0 0 0 .544-.545V6.746a.544.544 0 0 0-.545-.545zm5.988 0h-2.509a.545.545 0 0 0-.545.545v2.51a.545.545 0 0 0 .545.544h2.51a.545.545 0 0 0 .544-.545V6.746a.544.544 0 0 0-.545-.545zM3.267 12.19H.757a.545.545 0 0 0-.544.544v2.51a.545.545 0 0 0 .544.544h2.51a.545.545 0 0 0 .544-.545v-2.509a.545.545 0 0 0-.544-.544zm5.987 0H6.745a.545.545 0 0 0-.544.544v2.51a.545.545 0 0 0 .544.544h2.51a.545.545 0 0 0 .544-.545v-2.509a.545.545 0 0 0-.545-.544zm5.988 0h-2.509a.545.545 0 0 0-.545.544v2.51a.545.545 0 0 0 .545.544h2.51a.545.545 0 0 0 .544-.544v-2.51a.544.544 0 0 0-.545-.544z"/></symbol><symbol id="icon-gal" viewBox="0 0 16 16"><path fill="#E0E4E9" d="M3.267.213H.757a.545.545 0 0 0-.544.544v2.51a.545.545 0 0 0 .544.544h2.51a.545.545 0 0 0 .544-.545V.758a.545.545 0 0 0-.544-.545zm5.987 0H6.745a.545.545 0 0 0-.544.544v2.51a.545.545 0 0 0 .544.544h2.51a.545.545 0 0 0 .544-.545V.758a.544.544 0 0 0-.545-.545zm6.533.544a.545.545 0 0 0-.545-.544h-2.509a.545.545 0 0 0-.545.544v2.51a.545.545 0 0 0 .545.544h2.51a.545.545 0 0 0 .544-.544V.757zM3.267 6.201H.757a.545.545 0 0 0-.544.545v2.51a.545.545 0 0 0 .544.544h2.51a.545.545 0 0 0 .544-.545V6.746a.545.545 0 0 0-.544-.545zm5.987 0H6.745a.545.545 0 0 0-.544.545v2.51a.545.545 0 0 0 .544.544h2.51a.545.545 0 0 0 .544-.545V6.746a.544.544 0 0 0-.545-.545zm5.988 0h-2.509a.545.545 0 0 0-.545.545v2.51a.545.545 0 0 0 .545.544h2.51a.545.545 0 0 0 .544-.545V6.746a.544.544 0 0 0-.545-.545zM3.267 12.19H.757a.545.545 0 0 0-.544.544v2.51a.545.545 0 0 0 .544.544h2.51a.545.545 0 0 0 .544-.545v-2.509a.545.545 0 0 0-.544-.544zm5.987 0H6.745a.545.545 0 0 0-.544.544v2.51a.545.545 0 0 0 .544.544h2.51a.545.545 0 0 0 .544-.545v-2.509a.545.545 0 0 0-.545-.544zm5.988 0h-2.509a.545.545 0 0 0-.545.544v2.51a.545.545 0 0 0 .545.544h2.51a.545.545 0 0 0 .544-.544v-2.51a.544.544 0 0 0-.545-.544z"/></symbol><symbol id="icon-list-on" viewBox="0 0 18 16"><path fill="#0E2B5A" d="M1.5 9.5c-.417 0-.77-.146-1.062-.438A1.444 1.444 0 0 1 0 8c0-.417.146-.77.438-1.062A1.444 1.444 0 0 1 1.5 6.5c.417 0 .77.146 1.062.438C2.854 7.229 3 7.583 3 8c0 .417-.146.77-.438 1.062A1.444 1.444 0 0 1 1.5 9.5zm0-6c-.417 0-.77-.146-1.062-.438A1.444 1.444 0 0 1 0 2c0-.417.146-.77.438-1.062A1.444 1.444 0 0 1 1.5.5c.417 0 .77.146 1.062.438C2.854 1.229 3 1.583 3 2c0 .417-.146.77-.438 1.062A1.444 1.444 0 0 1 1.5 3.5zm0 12c-.417 0-.77-.146-1.062-.438A1.444 1.444 0 0 1 0 14c0-.417.146-.77.438-1.062A1.444 1.444 0 0 1 1.5 12.5c.417 0 .77.146 1.062.438.292.291.438.645.438 1.062 0 .417-.146.77-.438 1.062A1.444 1.444 0 0 1 1.5 15.5zM6 15a.965.965 0 0 1-.712-.288A.965.965 0 0 1 5 14c0-.283.096-.52.288-.712A.965.965 0 0 1 6 13h11c.283 0 .52.096.712.288A.965.965 0 0 1 18 14c0 .283-.096.52-.288.712A.965.965 0 0 1 17 15H6zm0-6a.965.965 0 0 1-.712-.288A.965.965 0 0 1 5 8c0-.283.096-.521.288-.713A.967.967 0 0 1 6 7h11a.97.97 0 0 1 .712.287c.192.192.288.43.288.713s-.096.52-.288.712A.965.965 0 0 1 17 9H6zm0-6a.967.967 0 0 1-.712-.287A.968.968 0 0 1 5 2c0-.283.096-.521.288-.713A.967.967 0 0 1 6 1h11a.97.97 0 0 1 .712.287c.192.192.288.43.288.713a.968.968 0 0 1-.288.713A.967.967 0 0 1 17 3H6z"/></symbol><symbol id="icon-list" viewBox="0 0 18 16"><path fill="#E0E4E9" d="M1.5 9.5c-.417 0-.77-.146-1.062-.438A1.444 1.444 0 0 1 0 8c0-.417.146-.77.438-1.062A1.444 1.444 0 0 1 1.5 6.5c.417 0 .77.146 1.062.438C2.854 7.229 3 7.583 3 8c0 .417-.146.77-.438 1.062A1.444 1.444 0 0 1 1.5 9.5zm0-6c-.417 0-.77-.146-1.062-.438A1.444 1.444 0 0 1 0 2c0-.417.146-.77.438-1.062A1.444 1.444 0 0 1 1.5.5c.417 0 .77.146 1.062.438C2.854 1.229 3 1.583 3 2c0 .417-.146.77-.438 1.062A1.444 1.444 0 0 1 1.5 3.5zm0 12c-.417 0-.77-.146-1.062-.438A1.444 1.444 0 0 1 0 14c0-.417.146-.77.438-1.062A1.444 1.444 0 0 1 1.5 12.5c.417 0 .77.146 1.062.438.292.291.438.645.438 1.062 0 .417-.146.77-.438 1.062A1.444 1.444 0 0 1 1.5 15.5zM6 15a.965.965 0 0 1-.712-.288A.965.965 0 0 1 5 14c0-.283.096-.52.288-.712A.965.965 0 0 1 6 13h11c.283 0 .52.096.712.288A.965.965 0 0 1 18 14c0 .283-.096.52-.288.712A.965.965 0 0 1 17 15H6zm0-6a.965.965 0 0 1-.712-.288A.965.965 0 0 1 5 8c0-.283.096-.521.288-.713A.967.967 0 0 1 6 7h11a.97.97 0 0 1 .712.287c.192.192.288.43.288.713s-.096.52-.288.712A.965.965 0 0 1 17 9H6zm0-6a.967.967 0 0 1-.712-.287A.968.968 0 0 1 5 2c0-.283.096-.521.288-.713A.967.967 0 0 1 6 1h11a.97.97 0 0 1 .712.287c.192.192.288.43.288.713a.968.968 0 0 1-.288.713A.967.967 0 0 1 17 3H6z"/></symbol></svg>