<svg width="19" height="20" viewBox="0 0 19 20" fill="none" xmlns="http://www.w3.org/2000/svg">
<path d="M20.1549 18.4904L15.6385 13.974C16.7021 12.5643 17.3403 10.8173 17.3403 8.91934C17.3403 4.27643 13.5621 0.499161 8.92017 0.499161C4.27726 0.500141 0.5 4.27741 0.5 8.92032C0.5 13.5622 4.27726 17.3405 8.92017 17.3405C10.8171 17.3405 12.5651 16.7023 13.9748 15.6386L18.4913 20.1551C18.7207 20.3845 19.0216 20.4992 19.3226 20.4992C19.6236 20.4992 19.9245 20.3845 20.1549 20.1541C20.6137 19.6953 20.6137 18.9502 20.1549 18.4904ZM2.85283 8.92032C2.85283 5.5744 5.57426 2.85297 8.92017 2.85297C12.2651 2.85297 14.9865 5.5744 14.9865 8.91934C14.9865 12.2643 12.2651 14.9857 8.92017 14.9857C5.57426 14.9867 2.85283 12.2653 2.85283 8.92032Z" fill="#0E2B5A"/>
</svg>
