<svg width="15" height="16" viewBox="0 0 15 16" fill="none" xmlns="http://www.w3.org/2000/svg">
<path fill-rule="evenodd" clip-rule="evenodd" d="M10.5023 7.001C10.3235 7.00518 10.1458 6.97358 9.97944 6.90806C9.81311 6.84254 9.66156 6.74442 9.5337 6.61948C9.40583 6.49454 9.30425 6.34529 9.2349 6.18051C9.16556 6.01574 9.12987 5.83876 9.12992 5.65999C9.12997 5.48122 9.16576 5.30426 9.23519 5.13953C9.30463 4.97479 9.4063 4.8256 9.53423 4.70073C9.66216 4.57586 9.81377 4.47783 9.98014 4.4124C10.1465 4.34697 10.3243 4.31547 10.503 4.31975C10.8531 4.32813 11.186 4.4731 11.4306 4.72368C11.6751 4.97426 11.812 5.31058 11.8119 5.66074C11.8118 6.01091 11.6748 6.34714 11.43 6.59759C11.1853 6.84803 10.8523 6.99282 10.5023 7.001M9.20925 11.585H4.69125C4.53196 11.5852 4.37555 11.5425 4.23847 11.4614C4.1014 11.3802 3.98871 11.2637 3.91227 11.1239C3.83584 10.9841 3.79847 10.8264 3.80409 10.6672C3.80972 10.508 3.85813 10.3533 3.94425 10.2192L6.204 6.698C6.28419 6.57274 6.3946 6.46966 6.52508 6.39826C6.65555 6.32687 6.80189 6.28945 6.95062 6.28945C7.09936 6.28945 7.2457 6.32687 7.37617 6.39826C7.50665 6.46966 7.61706 6.57274 7.69725 6.698L9.9555 10.2192C10.0416 10.3532 10.09 10.5079 10.0957 10.667C10.1013 10.8261 10.064 10.9838 9.98765 11.1236C9.91131 11.2633 9.79873 11.3799 9.66176 11.4611C9.52479 11.5423 9.36848 11.5851 9.20925 11.585M12.9653 0.6875H2.03475C1.54483 0.6875 1.07497 0.88212 0.728547 1.22855C0.38212 1.57497 0.1875 2.04483 0.1875 2.53475V13.4653C0.1875 13.9552 0.38212 14.425 0.728547 14.7715C1.07497 15.1179 1.54483 15.3125 2.03475 15.3125H12.9653C13.4552 15.3125 13.925 15.1179 14.2715 14.7715C14.6179 14.425 14.8125 13.9552 14.8125 13.4653V2.53475C14.8125 2.04483 14.6179 1.57497 14.2715 1.22855C13.925 0.88212 13.4552 0.6875 12.9653 0.6875" fill="white"/>
</svg>
