<svg width="17" height="17" viewBox="0 0 17 17" fill="none" xmlns="http://www.w3.org/2000/svg">
<path d="M8.49604 9.74695C8.63198 9.74695 8.76487 9.70664 8.87791 9.63112C8.99094 9.55559 9.07904 9.44824 9.13106 9.32264C9.18309 9.19705 9.1967 9.05884 9.17018 8.92551C9.14366 8.79218 9.07819 8.66971 8.98207 8.57358C8.88594 8.47745 8.76347 8.41199 8.63013 8.38547C8.4968 8.35894 8.3586 8.37256 8.233 8.42458C8.1074 8.4766 8.00006 8.5647 7.92453 8.67774C7.849 8.79077 7.80869 8.92366 7.80869 9.05961C7.80869 9.2419 7.88111 9.41673 8.01001 9.54564C8.13891 9.67454 8.31374 9.74695 8.49604 9.74695ZM11.9328 9.74695C12.0687 9.74695 12.2016 9.70664 12.3146 9.63112C12.4277 9.55559 12.5158 9.44824 12.5678 9.32264C12.6198 9.19705 12.6334 9.05884 12.6069 8.92551C12.5804 8.79218 12.5149 8.66971 12.4188 8.57358C12.3227 8.47745 12.2002 8.41199 12.0669 8.38547C11.9335 8.35894 11.7953 8.37256 11.6697 8.42458C11.5441 8.4766 11.4368 8.5647 11.3613 8.67774C11.2857 8.79077 11.2454 8.92366 11.2454 9.05961C11.2454 9.2419 11.3178 9.41673 11.4467 9.54564C11.5757 9.67454 11.7505 9.74695 11.9328 9.74695ZM8.49604 12.4963C8.63198 12.4963 8.76487 12.456 8.87791 12.3805C8.99094 12.305 9.07904 12.1976 9.13106 12.072C9.18309 11.9464 9.1967 11.8082 9.17018 11.6749C9.14366 11.5416 9.07819 11.4191 8.98207 11.323C8.88594 11.2268 8.76347 11.1614 8.63013 11.1349C8.4968 11.1083 8.3586 11.1219 8.233 11.174C8.1074 11.226 8.00006 11.3141 7.92453 11.4271C7.849 11.5402 7.80869 11.6731 7.80869 11.809C7.80869 11.9913 7.88111 12.1661 8.01001 12.295C8.13891 12.4239 8.31374 12.4963 8.49604 12.4963ZM11.9328 12.4963C12.0687 12.4963 12.2016 12.456 12.3146 12.3805C12.4277 12.305 12.5158 12.1976 12.5678 12.072C12.6198 11.9464 12.6334 11.8082 12.6069 11.6749C12.5804 11.5416 12.5149 11.4191 12.4188 11.323C12.3227 11.2268 12.2002 11.1614 12.0669 11.1349C11.9335 11.1083 11.7953 11.1219 11.6697 11.174C11.5441 11.226 11.4368 11.3141 11.3613 11.4271C11.2857 11.5402 11.2454 11.6731 11.2454 11.809C11.2454 11.9913 11.3178 12.1661 11.4467 12.295C11.5757 12.4239 11.7505 12.4963 11.9328 12.4963ZM5.0593 9.74695C5.19524 9.74695 5.32813 9.70664 5.44117 9.63112C5.5542 9.55559 5.6423 9.44824 5.69432 9.32264C5.74635 9.19705 5.75996 9.05884 5.73344 8.92551C5.70692 8.79218 5.64145 8.66971 5.54533 8.57358C5.4492 8.47745 5.32673 8.41199 5.19339 8.38547C5.06006 8.35894 4.92186 8.37256 4.79626 8.42458C4.67067 8.4766 4.56332 8.5647 4.48779 8.67774C4.41226 8.79077 4.37195 8.92366 4.37195 9.05961C4.37195 9.2419 4.44437 9.41673 4.57327 9.54564C4.70217 9.67454 4.877 9.74695 5.0593 9.74695ZM13.3075 2.87348H12.6201V2.18613C12.6201 2.00383 12.5477 1.829 12.4188 1.7001C12.2899 1.5712 12.1151 1.49878 11.9328 1.49878C11.7505 1.49878 11.5757 1.5712 11.4467 1.7001C11.3178 1.829 11.2454 2.00383 11.2454 2.18613V2.87348H5.74665V2.18613C5.74665 2.00383 5.67423 1.829 5.54533 1.7001C5.41642 1.5712 5.24159 1.49878 5.0593 1.49878C4.877 1.49878 4.70217 1.5712 4.57327 1.7001C4.44437 1.829 4.37195 2.00383 4.37195 2.18613V2.87348H3.6846C3.13771 2.87348 2.61323 3.09073 2.22652 3.47743C1.83981 3.86414 1.62256 4.38863 1.62256 4.93552V13.1837C1.62256 13.7306 1.83981 14.2551 2.22652 14.6418C2.61323 15.0285 3.13771 15.2457 3.6846 15.2457H13.3075C13.8544 15.2457 14.3789 15.0285 14.7656 14.6418C15.1523 14.2551 15.3695 13.7306 15.3695 13.1837V4.93552C15.3695 4.38863 15.1523 3.86414 14.7656 3.47743C14.3789 3.09073 13.8544 2.87348 13.3075 2.87348ZM13.9948 13.1837C13.9948 13.366 13.9224 13.5408 13.7935 13.6697C13.6646 13.7986 13.4898 13.871 13.3075 13.871H3.6846C3.50231 13.871 3.32748 13.7986 3.19857 13.6697C3.06967 13.5408 2.99725 13.366 2.99725 13.1837V6.99756H13.9948V13.1837ZM13.9948 5.62287H2.99725V4.93552C2.99725 4.75322 3.06967 4.57839 3.19857 4.44949C3.32748 4.32059 3.50231 4.24817 3.6846 4.24817H13.3075C13.4898 4.24817 13.6646 4.32059 13.7935 4.44949C13.9224 4.57839 13.9948 4.75322 13.9948 4.93552V5.62287ZM5.0593 12.4963C5.19524 12.4963 5.32813 12.456 5.44117 12.3805C5.5542 12.305 5.6423 12.1976 5.69432 12.072C5.74635 11.9464 5.75996 11.8082 5.73344 11.6749C5.70692 11.5416 5.64145 11.4191 5.54533 11.323C5.4492 11.2268 5.32673 11.1614 5.19339 11.1349C5.06006 11.1083 4.92186 11.1219 4.79626 11.174C4.67067 11.226 4.56332 11.3141 4.48779 11.4271C4.41226 11.5402 4.37195 11.6731 4.37195 11.809C4.37195 11.9913 4.44437 12.1661 4.57327 12.295C4.70217 12.4239 4.877 12.4963 5.0593 12.4963Z" fill="black"/>
</svg>
