<svg width="56" height="56" viewBox="0 0 56 56" fill="none" xmlns="http://www.w3.org/2000/svg">
<path fill-rule="evenodd" clip-rule="evenodd" d="M41.0175 23.5375L27.06 37.4975C26.5898 37.9645 25.954 38.2266 25.2913 38.2266C24.6285 38.2266 23.9927 37.9645 23.5225 37.4975L14.9825 28.9575C14.7504 28.7254 14.5663 28.4498 14.4407 28.1466C14.315 27.8433 14.2504 27.5183 14.2504 27.19C14.2504 26.5271 14.5137 25.8913 14.9825 25.4225C15.4513 24.9537 16.0871 24.6904 16.75 24.6904C17.4129 24.6904 18.0487 24.9537 18.5175 25.4225L25.29 32.195L37.4825 20.0025C37.7146 19.7704 37.9902 19.5863 38.2934 19.4606C38.5967 19.335 38.9217 19.2704 39.25 19.2704C39.5783 19.2704 39.9033 19.335 40.2066 19.4606C40.5098 19.5863 40.7854 19.7704 41.0175 20.0025C41.2496 20.2346 41.4337 20.5102 41.5594 20.8134C41.685 21.1167 41.7496 21.4417 41.7496 21.77C41.7496 22.0983 41.685 22.4233 41.5594 22.7266C41.4337 23.0298 41.2496 23.3054 41.0175 23.5375M28 0.5C12.8125 0.5 0.5 12.8125 0.5 28C0.5 43.1875 12.8125 55.5 28 55.5C43.1875 55.5 55.5 43.1875 55.5 28C55.5 12.8125 43.1875 0.5 28 0.5Z" fill="#0E2B5A"/>
</svg>
