<svg width="19" height="18" viewBox="0 0 19 18" fill="none" xmlns="http://www.w3.org/2000/svg">
<path fill-rule="evenodd" clip-rule="evenodd" d="M6.96872 15.0748C6.70997 15.0748 6.45122 14.9736 6.24872 14.7823C6.0598 14.5926 5.95374 14.3357 5.95374 14.068C5.95374 13.8002 6.0598 13.5433 6.24872 13.3536L10.6025 8.99983L6.24872 4.65733C6.0598 4.46758 5.95374 4.21072 5.95374 3.94296C5.95374 3.67519 6.0598 3.41833 6.24872 3.22858C6.43847 3.03966 6.69533 2.93359 6.9631 2.93359C7.23086 2.93359 7.48772 3.03966 7.67747 3.22858L12.74 8.29108C12.9289 8.48083 13.035 8.73769 13.035 9.00546C13.035 9.27322 12.9289 9.53008 12.74 9.71983L7.67747 14.7823C7.48622 14.9736 7.22747 15.0748 6.96872 15.0748" fill="#0E2B5A"/>
</svg>
