<svg width="16" height="16" viewBox="0 0 16 16" fill="none" xmlns="http://www.w3.org/2000/svg">
<g clip-path="url(#clip0_749_3028)">
<path fill-rule="evenodd" clip-rule="evenodd" d="M7.88326 11.4118C7.67418 11.4118 7.47367 11.3276 7.32583 11.1775C7.17799 11.0275 7.09494 10.824 7.09494 10.6118C7.09494 10.3997 7.17799 10.1962 7.32583 10.0462C7.47367 9.89612 7.67418 9.81184 7.88326 9.81184C8.09234 9.81184 8.29285 9.89612 8.44069 10.0462C8.58853 10.1962 8.67158 10.3997 8.67158 10.6118C8.67158 10.824 8.58853 11.0275 8.44069 11.1775C8.29285 11.3276 8.09234 11.4118 7.88326 11.4118ZM7.22633 4.85517C7.22633 4.67836 7.29554 4.50879 7.41874 4.38377C7.54194 4.25874 7.70903 4.1885 7.88326 4.1885C8.05749 4.1885 8.22458 4.25874 8.34778 4.38377C8.47098 4.50879 8.54019 4.67836 8.54019 4.85517V8.1885C8.54019 8.36532 8.47098 8.53488 8.34778 8.65991C8.22458 8.78493 8.05749 8.85517 7.88326 8.85517C7.70903 8.85517 7.54194 8.78493 7.41874 8.65991C7.29554 8.53488 7.22633 8.36532 7.22633 8.1885V4.85517ZM7.88326 0.666504C3.89238 0.666504 0.656982 3.94984 0.656982 7.99984C0.656982 12.0505 3.89238 15.3332 7.88326 15.3332C11.8741 15.3332 15.1095 12.0505 15.1095 7.99984C15.1095 3.94984 11.8741 0.666504 7.88326 0.666504Z" fill="#0E2B5A"/>
</g>
<defs>
<clipPath id="clip0_749_3028">
<rect width="15.7664" height="16" fill="white"/>
</clipPath>
</defs>
</svg>
