<svg width="27" height="26" viewBox="0 0 27 26" fill="none" xmlns="http://www.w3.org/2000/svg">
<path d="M26.2501 12.0625C26.2501 10.4463 25.6081 8.89633 24.4653 7.75353C23.3225 6.61073 21.7725 5.96871 20.1564 5.96871H15.4689C15.4103 5.96871 9.49229 5.87496 3.85557 1.15231C3.51407 0.864068 3.09728 0.679468 2.65434 0.620267C2.21139 0.561067 1.76076 0.629735 1.35555 0.818176C0.950336 1.00662 0.607445 1.30698 0.367293 1.68385C0.127141 2.06072 -0.000261031 2.49839 0.000104391 2.94528V21.1797C-0.0041358 21.6256 0.120878 22.0632 0.360036 22.4396C0.599194 22.816 0.942257 23.1151 1.34776 23.3007C1.65886 23.4502 1.99875 23.5302 2.34385 23.5351C2.899 23.5355 3.43569 23.3358 3.85557 22.9726C6.52497 20.7256 9.70982 19.1754 13.1251 18.4609V21.8007C13.1234 22.2357 13.2446 22.6622 13.4748 23.0312C13.7049 23.4003 14.0346 23.6968 14.4259 23.8867L16.6056 24.9882C16.9198 25.1439 17.2647 25.2278 17.6153 25.2339C17.9659 25.24 18.3135 25.1681 18.6329 25.0234C18.9545 24.8773 19.2387 24.66 19.464 24.3879C19.6894 24.1159 19.85 23.7963 19.9337 23.4531L21.2814 18.0507C22.6768 17.7863 23.9364 17.0437 24.8433 15.9507C25.7502 14.8577 26.2477 13.4827 26.2501 12.0625ZM2.8126 20.207V3.91793C5.82435 6.27128 9.36377 7.85598 13.1251 8.53512V15.5898C9.36377 16.2689 5.82435 17.8536 2.8126 20.207ZM17.3439 22.2109L15.9376 21.5078V18.1562H18.3517L17.3439 22.2109ZM20.1564 15.3437H15.9376V8.78121H20.1564C21.0266 8.78121 21.8612 9.12692 22.4765 9.74227C23.0919 10.3576 23.4376 11.1922 23.4376 12.0625C23.4376 12.9327 23.0919 13.7673 22.4765 14.3827C21.8612 14.998 21.0266 15.3437 20.1564 15.3437Z" fill="white"/>
</svg>
