<svg width="12" height="12" viewBox="0 0 12 12" fill="none" xmlns="http://www.w3.org/2000/svg">
<path d="M7.52932 4.46944L4.76891 6.80698C4.70574 6.86081 4.62759 6.89375 4.54512 6.90132C4.46265 6.90888 4.37986 6.8907 4.30804 6.84924L1.09646 4.98637C1.0304 4.94765 0.976669 4.89083 0.941559 4.82254C0.90645 4.75426 0.89141 4.67734 0.898195 4.60078C0.90498 4.52422 0.93331 4.45118 0.979875 4.39021C1.02644 4.32924 1.08931 4.28286 1.16114 4.25649L10.7021 0.782696C10.7739 0.756644 10.8516 0.751658 10.9262 0.768314C11.0007 0.784971 11.069 0.822581 11.123 0.876767C11.1771 0.930953 11.2148 0.999481 11.2316 1.07435C11.2484 1.14922 11.2436 1.22734 11.218 1.29962L7.77674 10.8367C7.75009 10.9106 7.7026 10.9751 7.64008 11.0223C7.57756 11.0695 7.50272 11.0974 7.42469 11.1026C7.34666 11.1078 7.26883 11.09 7.20068 11.0515C7.13254 11.0129 7.07704 10.9552 7.04096 10.8855L5.32197 7.55473C5.28574 7.48388 5.27101 7.40389 5.27964 7.32471C5.28827 7.24552 5.31986 7.17062 5.37048 7.10933L7.5455 4.4857C7.54764 4.48354 7.54884 4.48062 7.54884 4.47757C7.54884 4.47452 7.54764 4.47159 7.5455 4.46944C7.54335 4.46728 7.54044 4.46608 7.53741 4.46608C7.53438 4.46608 7.53147 4.46728 7.52932 4.46944Z" fill="white"/>
</svg>
