<svg width="95" height="24" viewBox="0 0 95 24" fill="none" xmlns="http://www.w3.org/2000/svg">
<path d="M15.1719 8.55664H19.0684C18.4238 4.39648 14.8057 1.49609 10.1328 1.49609C4.58105 1.49609 0.420898 5.58301 0.435547 12.3945C0.420898 19.1182 4.39062 23.293 10.25 23.293C15.4941 23.293 19.2441 19.9092 19.2441 14.4453V11.8965H10.6309V14.9141H15.5527C15.4941 17.9316 13.458 19.8652 10.25 19.8652C6.70508 19.8652 4.25879 17.1846 4.27344 12.3652C4.25879 7.58984 6.74902 4.92383 10.1621 4.92383C12.7402 4.92383 14.4834 6.30078 15.1719 8.55664ZM23.5215 23H27.2715V7.0918H23.5215V23ZM23.2578 2.78516C23.2578 3.91309 24.2393 4.82129 25.4258 4.83594C26.6123 4.82129 27.5938 3.91309 27.5938 2.78516C27.5938 1.67188 26.6123 0.763672 25.4258 0.763672C24.2393 0.763672 23.2578 1.67188 23.2578 2.78516ZM30.8457 23H34.5957V13.625C34.5957 11.6182 36.1191 10.1826 38.1992 10.168C38.8145 10.1826 39.5908 10.2852 39.9277 10.4023V6.94531C39.5762 6.90137 38.9902 6.85742 38.5801 6.85742C36.749 6.85742 35.2256 7.89746 34.6543 9.72852H34.4785V7.0918H30.8457V23ZM42.1543 23H45.9043V7.0918H42.1543V23ZM41.8906 2.78516C41.8906 3.91309 42.8721 4.82129 44.0586 4.83594C45.2451 4.82129 46.2266 3.91309 46.2266 2.78516C46.2266 1.67188 45.2451 0.763672 44.0586 0.763672C42.8721 0.763672 41.8906 1.67188 41.8906 2.78516ZM63.8633 8.55664H67.7598C67.1152 4.39648 63.4971 1.49609 58.8242 1.49609C53.2725 1.49609 49.1123 5.58301 49.127 12.3945C49.1123 19.1182 53.082 23.293 58.9414 23.293C64.1855 23.293 67.9355 19.9092 67.9355 14.4453V11.8965H59.3223V14.9141H64.2441C64.1855 17.9316 62.1494 19.8652 58.9414 19.8652C55.3965 19.8652 52.9502 17.1846 52.9648 12.3652C52.9502 7.58984 55.4404 4.92383 58.8535 4.92383C61.4316 4.92383 63.1748 6.30078 63.8633 8.55664ZM72.2129 23H75.9629V7.0918H72.2129V23ZM71.9492 2.78516C71.9492 3.91309 72.9307 4.82129 74.1172 4.83594C75.3037 4.82129 76.2852 3.91309 76.2852 2.78516C76.2852 1.67188 75.3037 0.763672 74.1172 0.763672C72.9307 0.763672 71.9492 1.67188 71.9492 2.78516ZM79.5371 23H83.2871V13.625C83.2871 11.6182 84.8105 10.1826 86.8906 10.168C87.5059 10.1826 88.2822 10.2852 88.6191 10.4023V6.94531C88.2676 6.90137 87.6816 6.85742 87.2715 6.85742C85.4404 6.85742 83.917 7.89746 83.3457 9.72852H83.1699V7.0918H79.5371V23ZM90.8457 23H94.5957V7.0918H90.8457V23ZM90.582 2.78516C90.582 3.91309 91.5635 4.82129 92.75 4.83594C93.9365 4.82129 94.918 3.91309 94.918 2.78516C94.918 1.67188 93.9365 0.763672 92.75 0.763672C91.5635 0.763672 90.582 1.67188 90.582 2.78516Z" fill="black"/>
</svg>
