<svg width="115" height="28" viewBox="0 0 115 28" fill="none" xmlns="http://www.w3.org/2000/svg">
<path d="M18.4062 9.66797H23.082C22.3086 4.67578 17.9668 1.19531 12.3594 1.19531C5.69727 1.19531 0.705078 6.09961 0.722656 14.2734C0.705078 22.3418 5.46875 27.3516 12.5 27.3516C18.793 27.3516 23.293 23.291 23.293 16.7344V13.6758H12.957V17.2969H18.8633C18.793 20.918 16.3496 23.2383 12.5 23.2383C8.24609 23.2383 5.31055 20.0215 5.32812 14.2383C5.31055 8.50781 8.29883 5.30859 12.3945 5.30859C15.4883 5.30859 17.5801 6.96094 18.4062 9.66797ZM28.4258 27H32.9258V7.91016H28.4258V27ZM28.1094 2.74219C28.1094 4.0957 29.2871 5.18555 30.7109 5.20312C32.1348 5.18555 33.3125 4.0957 33.3125 2.74219C33.3125 1.40625 32.1348 0.316406 30.7109 0.316406C29.2871 0.316406 28.1094 1.40625 28.1094 2.74219ZM37.2148 27H41.7148V15.75C41.7148 13.3418 43.543 11.6191 46.0391 11.6016C46.7773 11.6191 47.709 11.7422 48.1133 11.8828V7.73438C47.6914 7.68164 46.9883 7.62891 46.4961 7.62891C44.2988 7.62891 42.4707 8.87695 41.7852 11.0742H41.5742V7.91016H37.2148V27ZM50.7852 27H55.2852V7.91016H50.7852V27ZM50.4688 2.74219C50.4688 4.0957 51.6465 5.18555 53.0703 5.20312C54.4941 5.18555 55.6719 4.0957 55.6719 2.74219C55.6719 1.40625 54.4941 0.316406 53.0703 0.316406C51.6465 0.316406 50.4688 1.40625 50.4688 2.74219ZM76.8359 9.66797H81.5117C80.7383 4.67578 76.3965 1.19531 70.7891 1.19531C64.127 1.19531 59.1348 6.09961 59.1523 14.2734C59.1348 22.3418 63.8984 27.3516 70.9297 27.3516C77.2227 27.3516 81.7227 23.291 81.7227 16.7344V13.6758H71.3867V17.2969H77.293C77.2227 20.918 74.7793 23.2383 70.9297 23.2383C66.6758 23.2383 63.7402 20.0215 63.7578 14.2383C63.7402 8.50781 66.7285 5.30859 70.8242 5.30859C73.918 5.30859 76.0098 6.96094 76.8359 9.66797ZM86.8555 27H91.3555V7.91016H86.8555V27ZM86.5391 2.74219C86.5391 4.0957 87.7168 5.18555 89.1406 5.20312C90.5645 5.18555 91.7422 4.0957 91.7422 2.74219C91.7422 1.40625 90.5645 0.316406 89.1406 0.316406C87.7168 0.316406 86.5391 1.40625 86.5391 2.74219ZM95.6445 27H100.145V15.75C100.145 13.3418 101.973 11.6191 104.469 11.6016C105.207 11.6191 106.139 11.7422 106.543 11.8828V7.73438C106.121 7.68164 105.418 7.62891 104.926 7.62891C102.729 7.62891 100.9 8.87695 100.215 11.0742H100.004V7.91016H95.6445V27ZM109.215 27H113.715V7.91016H109.215V27ZM108.898 2.74219C108.898 4.0957 110.076 5.18555 111.5 5.20312C112.924 5.18555 114.102 4.0957 114.102 2.74219C114.102 1.40625 112.924 0.316406 111.5 0.316406C110.076 0.316406 108.898 1.40625 108.898 2.74219Z" fill="white"/>
</svg>
