<svg width="132" height="38" viewBox="0 0 132 38" fill="none" xmlns="http://www.w3.org/2000/svg">
<path d="M1.48926 0.324219H6.03027L10.9375 12.3115H11.1328L16.04 0.324219H20.5811V18H17.0166V6.42773H16.8701L12.2559 17.9268H9.81445L5.2002 6.37891H5.05371V18H1.48926V0.324219ZM23.5596 18V0.324219H35.4248V3.35156H27.2217V7.64844H34.8145V10.6758H27.2217V14.9727H35.4492V18H23.5596ZM44.5068 18H38.2812V0.324219H44.5801C49.9023 0.324219 53.1616 3.63232 53.1494 9.1377C53.1616 14.6675 49.9023 18 44.5068 18ZM41.9434 14.8506H44.3604C47.7295 14.8506 49.4873 13.105 49.4873 9.1377C49.4873 5.20703 47.7295 3.47363 44.3848 3.47363H41.9434V14.8506ZM59.4727 0.324219V18H55.8105V0.324219H59.4727ZM65.4053 18H61.4502L67.5781 0.324219H72.29L78.3936 18H74.4629L73.1323 13.9229H66.7358L65.4053 18ZM67.6636 11.0664H72.2046L69.9951 4.30371H69.873L67.6636 11.0664ZM86.1572 18V0.324219H89.8193V14.9727H97.4365V18H86.1572ZM103.223 18H99.2676L105.396 0.324219H110.107L116.211 18H112.28L110.95 13.9229H104.553L103.223 18ZM105.481 11.0664H110.022L107.812 4.30371H107.69L105.481 11.0664ZM118.213 18V0.324219H125.244C129.138 0.324219 131.116 2.2041 131.104 4.86523C131.116 6.94043 129.749 8.24658 127.93 8.64941V8.82031C129.919 8.91797 131.799 10.5049 131.812 13.1172C131.799 15.9248 129.7 18 125.708 18H118.213ZM121.875 14.9727H124.976C127.1 14.9849 128.015 14.106 128.003 12.7754C128.015 11.2861 126.88 10.2363 125.073 10.2363H121.875V14.9727ZM121.875 7.72168H124.707C126.245 7.73389 127.405 6.86719 127.393 5.45117C127.405 4.16943 126.453 3.30273 124.78 3.30273H121.875V7.72168ZM9.96582 25.6533V37.1299H8.54395V25.6533H9.96582ZM0.457031 33.9688C3.46582 32.5405 4.84961 30.5981 5.10352 27.9893H1.04102V26.8721H6.53809C6.53809 30.2871 5.21143 33.188 1.19336 35.0986L0.457031 33.9688ZM15.4695 28.916C15.4631 30.687 16.5296 32.7056 18.3386 33.5498L17.5515 34.667C16.2566 34.0576 15.2981 32.8262 14.7839 31.3916C14.2634 32.9658 13.2605 34.3115 11.9402 34.9463L11.115 33.8418C12.9431 32.9722 14.054 30.8267 14.0603 28.916V27.9512H11.5593V26.7832H17.8689V27.9512H15.4695V28.916ZM18.9353 37.1299V25.6533H20.3445V30.1221H22.1091V31.3027H20.3445V37.1299H18.9353ZM32.2847 25.6533V37.1299H30.939V31.3154H29.7583V36.5713H28.4253V25.8564H29.7583V30.1475H30.939V25.6533H32.2847ZM22.1411 33.791C23.8423 32.8262 24.5279 30.8267 24.5279 28.5859V28.04H22.4839V26.9102H27.7779V28.04H25.8989V28.5859C25.8989 30.6235 26.5845 32.5088 28.2857 33.3848L27.4605 34.4639C26.3687 33.8735 25.6514 32.8643 25.2451 31.6201C24.8579 33.0483 24.1406 34.1973 23.0044 34.8701L22.1411 33.791ZM42.251 26.3643V31.1377H36.7159V26.3643H42.251ZM37.4014 36.0127C39.604 35.8223 41.0132 34.8447 41.1402 33.9307H37.8711V32.8643H41.1719V31.8613H42.5938V32.8643H45.9073V33.9307H42.6319C42.7588 34.8193 44.1426 35.7905 46.3389 36.0127L45.8565 37.0918C43.9966 36.895 42.5874 36.165 41.8892 35.2129C41.1846 36.1777 39.7564 36.8887 37.8838 37.0918L37.4014 36.0127ZM38.1123 30.0332H40.8545V27.4814H38.1123V30.0332ZM44.2696 32.1914V25.6533H45.6661V32.1914H44.2696ZM59.7457 25.666V32.0264H58.4V29.3984H57.2066V31.9375H55.8863V25.8564H57.2066V28.2812H58.4V25.666H59.7457ZM50.4019 27.4053V26.2881H54.7691V29.4365H51.7857V30.5474C53.1251 30.5283 54.1343 30.4775 55.3023 30.249L55.4293 31.3789C54.0455 31.6328 52.8838 31.6772 51.2017 31.6836H50.4146V28.3955H53.4107V27.4053H50.4019ZM52.0015 36.9902V32.5215H53.398V33.6006H58.3492V32.5215H59.7457V36.9902H52.0015ZM53.398 35.8477H58.3492V34.7051H53.398V35.8477ZM70.4417 25.6533V31.5059H69.0452V25.6533H70.4417ZM60.8948 30.3887C62.7547 29.7983 63.7322 28.3257 63.7259 26.8213V25.9326H65.1859V26.8213C65.1795 28.2812 66.1507 29.646 67.9661 30.1982L67.2806 31.29C65.9476 30.8774 64.9954 30.0269 64.4749 28.9351C63.9544 30.1221 62.9769 31.0552 61.6058 31.4932L60.8948 30.3887ZM62.8499 33.1309V32.0391H70.4671V35.0225H64.2591V35.9111H70.8099V37.0283H62.8753V33.9688H69.0579V33.1309H62.8499ZM84.5848 25.6533V37.1299H83.2391V31.2773H81.9442V36.5459H80.6493V25.8691H81.9442V30.1475H83.2391V25.6533H84.5848ZM75.0633 34.4512V27.0117H79.3543V28.1543H76.4852V33.2578C77.7293 33.2451 78.7577 33.1816 79.9256 32.9658L80.0272 34.1211C78.6371 34.4004 77.4373 34.4385 75.8377 34.4512H75.0633ZM88.8189 26.4912C89.8536 26.4912 90.7105 27.0688 91.2247 28.0781H93.9098V25.6533H95.3063V37.1426H93.9098V32.8008H91.3263C90.8248 33.9434 89.9234 34.6035 88.8189 34.6035C87.0924 34.6035 85.8673 33.0356 85.8736 30.541C85.8673 28.0654 87.0924 26.4912 88.8189 26.4912ZM87.232 30.541C87.2257 32.3057 87.8731 33.3276 88.8189 33.334C89.7711 33.3276 90.4122 32.3057 90.4186 30.541C90.4122 28.7891 89.7711 27.7607 88.8189 27.7607C87.8731 27.7607 87.2257 28.7891 87.232 30.541ZM91.6246 29.2334C91.7071 29.6333 91.7516 30.0713 91.7516 30.541C91.7516 30.9346 91.7198 31.3091 91.6563 31.6582H93.9098V29.2334H91.6246ZM103.825 28.4082C103.813 30.5156 104.923 32.623 106.783 33.4229L105.945 34.5527C104.625 33.9434 103.66 32.731 103.127 31.2329C102.6 32.8452 101.61 34.1655 100.22 34.8193L99.3566 33.6387C101.267 32.8135 102.384 30.6235 102.391 28.4082V26.5801H103.825V28.4082ZM107.609 37.1426V25.6533H109.03V37.1426H107.609ZM116.388 27.2275C116.388 28.9985 118.12 30.7822 120.526 31.2012L119.891 32.3818C117.968 31.9819 116.394 30.814 115.645 29.2715C114.89 30.8013 113.315 31.9756 111.398 32.3818L110.776 31.2012C113.144 30.7695 114.883 28.9922 114.89 27.2275V26.377H116.388V27.2275ZM110.459 35.6699V34.502H120.945V35.6699H110.459ZM126.284 26.3643V27.5068H123.275V28.5859H125.852V29.6777H123.275V30.8584C124.646 30.8457 125.598 30.7886 126.715 30.5918L126.868 31.6963C125.541 31.9375 124.449 31.9883 122.678 31.9883H121.917V26.3643H126.284ZM123.504 36.9902V33.0039H131.248V36.9902H123.504ZM124.913 35.8477H129.851V34.1211H124.913V35.8477ZM126.347 29.6016V28.459H127.642V25.8438H128.988V32.4326H127.642V29.6016H126.347ZM129.902 32.5215V25.6533H131.248V32.5215H129.902Z" fill="#0E2B5A"/>
</svg>
